<?xml version="1.0" encoding="UTF-8"?>
<!DOCTYPE svg PUBLIC "-//W3C//DTD SVG 1.1//EN" "http://www.w3.org/Graphics/SVG/1.1/DTD/svg11.dtd">
<!-- Creator: CorelDRAW X6 -->
<svg xmlns="http://www.w3.org/2000/svg" xml:space="preserve" width="423px" height="79px" version="1.1" style="shape-rendering:geometricPrecision; text-rendering:geometricPrecision; image-rendering:optimizeQuality; fill-rule:evenodd; clip-rule:evenodd"
viewBox="0 0 202351 37920"
 xmlns:xlink="http://www.w3.org/1999/xlink">
 <defs>
  <style type="text/css">
   <![CDATA[
    .fil0 {fill:black}
    .fil1 {fill:black;fill-rule:nonzero}
   ]]>
  </style>
 </defs>
 <g id="Layer_x0020_1">
  <metadata id="CorelCorpID_0Corel-Layer"/>
  <path class="fil0" d="M36191 21217c-69,-212 -186,-504 -364,-949 -201,-506 -18,-2644 -202,-3639 -630,-3406 -827,-5406 -2720,-8450 -6556,-10544 -21859,-10954 -28901,-489 -1934,2874 -2318,4885 -2917,8208 -296,1642 -50,2915 -220,4012 -93,606 -447,1286 -607,2013 -570,2589 -155,7011 781,9367 699,1756 788,2049 2601,1901 1325,-107 -97,-582 1638,-479 444,27 1879,105 2184,-152 246,-465 -678,-7528 -867,-8516 -697,-3649 723,-6066 -3677,-4226 -335,140 -708,-236 -982,-475 -190,-166 -201,-3344 -154,-3752 120,-1024 507,-2259 858,-3236 713,-1981 1713,-3570 3056,-5180 1113,-1335 482,607 2433,491 619,-37 2299,-829 3039,-1085 2468,-852 4523,-1133 7127,-1133 6441,0 8793,2158 10206,2220 1851,82 1375,-1828 2383,-482 2787,3723 2918,4165 3906,8467 78,336 29,3507 -144,3660 -264,233 -568,563 -917,521 -975,-117 -2918,-1603 -3187,-60 -233,1344 -388,2907 -544,4271 -127,1115 -1128,8027 -869,8515 314,262 1777,182 2227,149 1661,-120 251,367 1631,485 1782,151 1909,-210 2576,-1933 440,-1134 1126,-5378 1083,-7417 -13,-611 -289,-2107 -457,-2627z"/>
  <path class="fil1" d="M61965 16833c0,-3741 -1247,-7849 -6858,-7849 -1944,0 -4108,551 -5831,1688l660 1613c1394,-990 3190,-1466 4877,-1466 4878,0 4878,4217 4878,6161 -7775,-74 -11846,2604 -11846,7261 0,2714 1907,5501 5795,5501 3007,0 5171,-1614 6124,-3191l110 0 257 2751 2091 0c-221,-1467 -257,-3154 -257,-4731l0 -7738zm-2237 6051c0,1467 -1468,5024 -5722,5024 -1980,0 -3777,-1247 -3777,-3998 0,-4620 5355,-5133 9499,-5133l0 4107z"/>
  <path id="1" class="fil1" d="M83308 9461l-2273 0 0 12372c0,3844 -3228,5965 -5832,5965 -3704,0 -4950,-2964 -4950,-7133l0 -11204 -2274 0 0 11663c0,7224 3924,8618 6601,8618 3484,0 5611,-2090 6564,-3814l110 0 147 3374 2090 0c-110,-1504 -183,-3112 -183,-4982l0 -14859z"/>
  <path id="2" class="fil1" d="M105495 0l-2273 0 0 12359 -74 0c-916,-1724 -3007,-3375 -6197,-3375 -4768,0 -8765,4072 -8765,10709 0,6052 3594,10049 8361,10049 3521,0 5832,-1907 6821,-4071l110 0 147 3631 2054 0c-110,-1357 -184,-3191 -184,-4695l0 -24607zm-2273 21307c0,2750 -2054,6565 -6161,6565 -4438,0 -6565,-3962 -6565,-8325 0,-4951 2567,-8692 6675,-8692 3117,0 6051,2420 6051,6491l0 3961z"/>
  <path id="3" class="fil1" d="M114701 3814c0,-991 -660,-1797 -1687,-1797 -991,0 -1724,843 -1724,1797 0,990 697,1833 1687,1833 991,0 1724,-733 1724,-1833zm-587 5647l-2274 0 0 19841 2274 0 0 -19841z"/>
  <path id="4" class="fil1" d="M134321 9461l-110 3191 -74 0c-806,-1614 -2677,-3668 -6381,-3668 -4327,0 -8765,3632 -8765,10563 0,5501 3485,9755 8325,9755 3338,0 5575,-1687 6601,-3667l74 0 0 2676c0,5685 -2860,7739 -6822,7739 -2493,0 -4437,-734 -5757,-1577l-734 1833c1504,1064 3998,1614 6235,1614 2237,0 4877,-624 6674,-2347 1651,-1577 2641,-4071 2641,-9132l0 -11735c0,-2274 73,-3814 183,-5245l-2090 0zm-330 11663c0,3337 -2567,6344 -6051,6344 -4401,0 -6638,-3667 -6638,-8141 0,-5135 2714,-8472 6674,-8472 3631,0 6015,3044 6015,6198l0 4071z"/>
  <path id="5" class="fil1" d="M150421 8984c-4915,0 -9279,3742 -9279,10563 0,6308 3924,10195 9022,10195 4364,0 9315,-3154 9315,-10562 0,-6015 -3594,-10196 -9058,-10196zm6748 10306c0,4877 -2971,8618 -6932,8618 -3887,0 -6784,-3741 -6784,-8471 0,-4145 2090,-8618 6894,-8618 4878,0 6822,4840 6822,8471z"/>
  <path id="6" class="fil1" d="M165127 29742c1100,0 1833,-880 1833,-1944 0,-1174 -733,-2017 -1797,-2017 -1063,0 -1833,843 -1833,2017 0,990 660,1944 1797,1944z"/>
  <path id="7" class="fil1" d="M184601 26698c-1064,477 -2494,1137 -4731,1137 -4364,0 -7482,-3301 -7482,-8398 0,-4584 2604,-8582 7665,-8582 2091,0 3557,623 4474,1137l697 -1834c-733,-477 -2604,-1174 -4987,-1174 -5979,0 -10159,4365 -10159,10600 0,6014 3777,10121 9425,10121 2714,0 4731,-807 5611,-1247l-513 -1760z"/>
  <path id="8" class="fil1" d="M187974 9461l0 1871 11553 0 0 73c-807,984 -1540,1901 -2274,2891l-10158 13649 0 1357 15256 0 0 -1871 -12396 0 0 -73c770,-947 1430,-1827 2163,-2818l10123 -13575 0 -1504 -14267 0z"/>
 </g>
</svg>
