<?xml version="1.0" encoding="UTF-8" standalone="no"?>
<!DOCTYPE svg PUBLIC "-//W3C//DTD SVG 1.1//EN" "http://www.w3.org/Graphics/SVG/1.1/DTD/svg11.dtd">
<svg width="100%" height="100%" viewBox="0 0 220 104" version="1.1" xmlns="http://www.w3.org/2000/svg" xmlns:xlink="http://www.w3.org/1999/xlink" xml:space="preserve" xmlns:serif="http://www.serif.com/" style="fill-rule:evenodd;clip-rule:evenodd;stroke-linejoin:round;stroke-miterlimit:2;">
    <g id="font_0_3" transform="matrix(20.0137,0,0,-20.0137,17.9237,103.73)">
        <path d="M0.024,0L0.476,0L0.476,0.097L0.201,0.104L0.181,0.101L0.161,0.091L0.155,0.101L0.17,0.108L0.189,0.126L0.467,0.587L0.467,0.669L0.054,0.669L0.054,0.571L0.289,0.565L0.307,0.566L0.328,0.574L0.332,0.564L0.321,0.558L0.302,0.541L0.024,0.082L0.024,0Z" style="fill:rgb(134,150,6);fill-rule:nonzero;"/>
    </g>
    <g id="font_0_6" transform="matrix(20.0137,0,0,-20.0137,27.7704,103.73)">
        <path d="M0.476,0C0.472,0.022 0.471,0.034 0.471,0.06L0.471,0.699L0.355,0.681L0.355,0.474L0.357,0.447L0.36,0.43L0.351,0.426L0.343,0.443C0.313,0.48 0.283,0.494 0.235,0.494C0.116,0.494 0.034,0.389 0.034,0.238C0.034,0.09 0.108,-0.007 0.221,-0.007C0.281,-0.007 0.323,0.018 0.353,0.072L0.359,0.072L0.373,0L0.476,0M0.355,0.153C0.322,0.109 0.295,0.093 0.252,0.093C0.189,0.093 0.154,0.145 0.154,0.24C0.154,0.336 0.191,0.392 0.254,0.392C0.297,0.392 0.327,0.373 0.355,0.326L0.355,0.153Z" style="fill:rgb(134,150,6);fill-rule:nonzero;"/>
    </g>
    <g id="font_0_11" transform="matrix(20.0137,0,0,-20.0137,38.5778,103.73)">
        <path d="M0.064,0L0.181,0L0.181,0.332C0.217,0.368 0.238,0.378 0.284,0.378C0.304,0.378 0.312,0.376 0.326,0.37L0.326,0.363L0.336,0.363L0.35,0.486C0.334,0.491 0.323,0.493 0.308,0.493C0.261,0.493 0.218,0.467 0.19,0.421L0.181,0.399L0.172,0.401L0.176,0.414L0.18,0.44L0.18,0.492L0.064,0.474L0.064,0Z" style="fill:rgb(134,150,6);fill-rule:nonzero;"/>
    </g>
    <g id="font_0_4" transform="matrix(20.0137,0,0,-20.0137,45.6026,103.73)">
        <path d="M0.439,0C0.437,0.011 0.436,0.022 0.436,0.026C0.435,0.03 0.435,0.042 0.435,0.06L0.435,0.312C0.435,0.447 0.39,0.495 0.263,0.495C0.191,0.495 0.133,0.481 0.062,0.445L0.088,0.361C0.137,0.386 0.18,0.396 0.238,0.396C0.303,0.396 0.321,0.377 0.321,0.311L0.321,0.299C0.28,0.304 0.257,0.306 0.225,0.306C0.097,0.306 0.034,0.252 0.034,0.144C0.034,0.048 0.086,-0.007 0.176,-0.007C0.234,-0.007 0.278,0.013 0.318,0.059L0.323,0.059L0.337,0L0.439,0M0.321,0.138C0.286,0.099 0.259,0.087 0.213,0.087C0.17,0.087 0.15,0.107 0.15,0.152C0.15,0.204 0.179,0.223 0.257,0.223C0.28,0.223 0.294,0.222 0.321,0.219L0.321,0.138Z" style="fill:rgb(134,150,6);fill-rule:nonzero;"/>
    </g>
    <g id="font_0_13" transform="matrix(20.0137,0,0,-20.0137,55.6495,103.73)">
        <path d="M0.157,0L0.288,0L0.444,0.485L0.325,0.485L0.235,0.158L0.232,0.132L0.232,0.104L0.219,0.104L0.219,0.132L0.216,0.158L0.126,0.485L0.002,0.485L0.157,0Z" style="fill:rgb(134,150,6);fill-rule:nonzero;"/>
    </g>
    <g id="font_0_17" transform="matrix(20.0137,0,0,-20.0137,64.6757,103.73)">
        <path d="M0.065,0L0.182,0L0.182,0.492L0.065,0.474L0.065,0M0.1,0.543L0.228,0.676L0.238,0.676L0.238,0.686L0.103,0.686L0.035,0.549L0.1,0.543Z" style="fill:rgb(134,150,6);fill-rule:nonzero;"/>
    </g>
    <g id="font_0_14" transform="matrix(20.0137,0,0,-20.0137,74.7726,103.73)">
        <path d="M0.4,0L0.4,0.085L0.19,0.089L0.173,0.086L0.156,0.079L0.152,0.088L0.17,0.097L0.186,0.112L0.395,0.417L0.395,0.484L0.043,0.484L0.043,0.397L0.227,0.392L0.245,0.396L0.262,0.403L0.267,0.393L0.25,0.386L0.233,0.371L0.023,0.068L0.023,0L0.4,0Z" style="fill:rgb(134,150,6);fill-rule:nonzero;"/>
    </g>
    <g id="font_0_41" serif:id="font_0_4" transform="matrix(20.0137,0,0,-20.0137,83.3585,103.73)">
        <path d="M0.439,0C0.437,0.011 0.436,0.022 0.436,0.026C0.435,0.03 0.435,0.042 0.435,0.06L0.435,0.312C0.435,0.447 0.39,0.495 0.263,0.495C0.191,0.495 0.133,0.481 0.062,0.445L0.088,0.361C0.137,0.386 0.18,0.396 0.238,0.396C0.303,0.396 0.321,0.377 0.321,0.311L0.321,0.299C0.28,0.304 0.257,0.306 0.225,0.306C0.097,0.306 0.034,0.252 0.034,0.144C0.034,0.048 0.086,-0.007 0.176,-0.007C0.234,-0.007 0.278,0.013 0.318,0.059L0.323,0.059L0.337,0L0.439,0M0.321,0.138C0.286,0.099 0.259,0.087 0.213,0.087C0.17,0.087 0.15,0.107 0.15,0.152C0.15,0.204 0.179,0.223 0.257,0.223C0.28,0.223 0.294,0.222 0.321,0.219L0.321,0.138Z" style="fill:rgb(134,150,6);fill-rule:nonzero;"/>
    </g>
    <g id="font_0_18" transform="matrix(20.0137,0,0,-20.0137,93.4054,103.73)">
        <path d="M0.374,0.125C0.329,0.099 0.302,0.09 0.263,0.09C0.188,0.09 0.15,0.14 0.15,0.238C0.15,0.338 0.191,0.394 0.265,0.394C0.304,0.394 0.335,0.383 0.371,0.355L0.395,0.445C0.352,0.479 0.308,0.494 0.25,0.494C0.117,0.494 0.03,0.392 0.03,0.237C0.03,0.083 0.11,-0.009 0.245,-0.009C0.303,-0.009 0.338,0.003 0.395,0.041L0.374,0.125M0.308,0.706L0.234,0.636L0.16,0.706L0.089,0.698L0.089,0.688L0.099,0.688L0.227,0.535L0.227,0.527L0.237,0.527L0.237,0.535L0.366,0.688L0.376,0.688L0.376,0.698L0.308,0.706Z" style="fill:rgb(134,150,6);fill-rule:nonzero;"/>
    </g>
    <g id="font_0_171" serif:id="font_0_17" transform="matrix(20.0137,0,0,-20.0137,101.671,103.73)">
        <path d="M0.065,0L0.182,0L0.182,0.492L0.065,0.474L0.065,0M0.1,0.543L0.228,0.676L0.238,0.676L0.238,0.686L0.103,0.686L0.035,0.549L0.1,0.543Z" style="fill:rgb(134,150,6);fill-rule:nonzero;"/>
    </g>
    <g id="font_0_10" transform="matrix(20.0137,0,0,-20.0137,106.795,103.73)">
        <path d="M0.059,0L0.175,0L0.175,0.326C0.215,0.373 0.249,0.391 0.295,0.391C0.345,0.391 0.357,0.374 0.357,0.299L0.357,0L0.475,0L0.475,0.331C0.475,0.446 0.436,0.495 0.345,0.495C0.283,0.495 0.223,0.466 0.181,0.415L0.172,0.393L0.164,0.396L0.169,0.411L0.173,0.437L0.173,0.49L0.059,0.472L0.059,0Z" style="fill:rgb(134,150,6);fill-rule:nonzero;"/>
    </g>
    <g id="font_0_16" transform="matrix(20.0137,0,0,-20.0137,117.622,103.73)">
        <path d="M0.439,0C0.437,0.011 0.436,0.022 0.436,0.026C0.435,0.03 0.435,0.042 0.435,0.06L0.435,0.312C0.435,0.447 0.39,0.495 0.263,0.495C0.191,0.495 0.133,0.481 0.062,0.445L0.088,0.361C0.137,0.386 0.18,0.396 0.238,0.396C0.303,0.396 0.321,0.377 0.321,0.311L0.321,0.299C0.28,0.304 0.257,0.306 0.225,0.306C0.097,0.306 0.034,0.252 0.034,0.144C0.034,0.048 0.086,-0.007 0.176,-0.007C0.234,-0.007 0.278,0.013 0.318,0.059L0.323,0.059L0.337,0L0.439,0M0.321,0.138C0.286,0.099 0.259,0.087 0.213,0.087C0.17,0.087 0.15,0.107 0.15,0.152C0.15,0.204 0.179,0.223 0.257,0.223C0.28,0.223 0.294,0.222 0.321,0.219L0.321,0.138M0.254,0.543L0.382,0.675L0.392,0.675L0.392,0.685L0.257,0.685L0.189,0.549L0.254,0.543Z" style="fill:rgb(134,150,6);fill-rule:nonzero;"/>
    </g>
    <g id="font_0_131" serif:id="font_0_13" transform="matrix(20.0137,0,0,-20.0137,132.642,103.73)">
        <path d="M0.157,0L0.288,0L0.444,0.485L0.325,0.485L0.235,0.158L0.232,0.132L0.232,0.104L0.219,0.104L0.219,0.132L0.216,0.158L0.126,0.485L0.002,0.485L0.157,0Z" style="fill:rgb(134,150,6);fill-rule:nonzero;"/>
    </g>
    <g id="font_0_9" transform="matrix(20.0137,0,0,-20.0137,146.652,103.73)">
        <path d="M0.059,0L0.175,0L0.175,0.321C0.219,0.371 0.253,0.391 0.294,0.391C0.337,0.391 0.348,0.374 0.348,0.307L0.348,0L0.463,0L0.463,0.328C0.501,0.373 0.534,0.391 0.578,0.391C0.623,0.391 0.636,0.373 0.636,0.309L0.636,0L0.753,0L0.753,0.329C0.753,0.448 0.717,0.495 0.627,0.495C0.56,0.495 0.495,0.459 0.463,0.406L0.458,0.389L0.449,0.391L0.451,0.406C0.449,0.463 0.411,0.495 0.345,0.495C0.281,0.495 0.215,0.46 0.182,0.409L0.173,0.388L0.165,0.391L0.169,0.403L0.173,0.429L0.173,0.49L0.059,0.472L0.059,0Z" style="fill:rgb(134,150,6);fill-rule:nonzero;"/>
    </g>
    <g id="font_0_8" transform="matrix(20.0137,0,0,-20.0137,163.043,103.73)">
        <path d="M0.065,0L0.182,0L0.182,0.492L0.065,0.474L0.065,0M0.125,0.684C0.08,0.684 0.05,0.659 0.05,0.621C0.05,0.583 0.079,0.558 0.123,0.558C0.167,0.558 0.197,0.584 0.197,0.621C0.197,0.658 0.167,0.684 0.125,0.684Z" style="fill:rgb(134,150,6);fill-rule:nonzero;"/>
    </g>
    <g id="font_0_12" transform="matrix(20.0137,0,0,-20.0137,168.167,103.73)">
        <path d="M0.033,0.042C0.091,0.004 0.141,-0.011 0.204,-0.011C0.32,-0.011 0.394,0.052 0.394,0.151C0.394,0.227 0.351,0.271 0.247,0.298C0.168,0.319 0.153,0.328 0.153,0.357C0.153,0.386 0.179,0.401 0.231,0.401C0.283,0.401 0.319,0.391 0.358,0.364L0.382,0.449C0.328,0.483 0.29,0.494 0.224,0.494C0.106,0.494 0.037,0.438 0.037,0.343C0.037,0.269 0.075,0.233 0.185,0.201C0.257,0.181 0.276,0.167 0.276,0.136C0.276,0.102 0.248,0.084 0.195,0.084C0.138,0.084 0.101,0.096 0.054,0.13L0.033,0.042Z" style="fill:rgb(134,150,6);fill-rule:nonzero;"/>
    </g>
    <g id="font_0_5" transform="matrix(20.0137,0,0,-20.0137,176.832,103.73)">
        <path d="M0.374,0.125C0.329,0.099 0.302,0.09 0.263,0.09C0.188,0.09 0.15,0.14 0.15,0.238C0.15,0.338 0.191,0.394 0.265,0.394C0.304,0.394 0.335,0.383 0.371,0.355L0.395,0.445C0.352,0.479 0.308,0.494 0.25,0.494C0.117,0.494 0.03,0.392 0.03,0.237C0.03,0.083 0.11,-0.009 0.245,-0.009C0.303,-0.009 0.338,0.003 0.395,0.041L0.374,0.125Z" style="fill:rgb(134,150,6);fill-rule:nonzero;"/>
    </g>
    <g id="font_0_7" transform="matrix(20.0137,0,0,-20.0137,185.098,103.73)">
        <path d="M0.415,0.124C0.362,0.096 0.332,0.087 0.286,0.087C0.207,0.087 0.16,0.126 0.153,0.198L0.15,0.206L0.143,0.214L0.145,0.218L0.156,0.212L0.165,0.211L0.465,0.211L0.465,0.234C0.465,0.413 0.4,0.496 0.262,0.496C0.121,0.496 0.032,0.397 0.032,0.24C0.032,0.083 0.117,-0.01 0.26,-0.01C0.33,-0.01 0.382,0.005 0.445,0.043L0.415,0.124M0.152,0.295C0.158,0.369 0.194,0.408 0.257,0.408C0.316,0.408 0.345,0.371 0.347,0.295L0.152,0.295Z" style="fill:rgb(134,150,6);fill-rule:nonzero;"/>
    </g>
    <g id="font_0_2" transform="matrix(20.0137,0,0,-20.0137,195.145,103.73)">
        <path d="M0.124,0.133C0.075,0.133 0.042,0.105 0.042,0.064C0.042,0.021 0.074,-0.007 0.123,-0.007C0.171,-0.007 0.203,0.021 0.203,0.063C0.203,0.104 0.171,0.133 0.124,0.133Z" style="fill:rgb(134,150,6);fill-rule:nonzero;"/>
    </g>
    <g id="font_0_15" transform="matrix(14,0,0,-14,194.293,100.73)">
        <path d="M0.201,0.767C0.111,0.767 0.041,0.698 0.041,0.612C0.041,0.523 0.11,0.453 0.198,0.453C0.286,0.453 0.356,0.523 0.356,0.611C0.356,0.696 0.286,0.767 0.201,0.767M0.197,0.735C0.266,0.735 0.321,0.681 0.321,0.612C0.321,0.54 0.267,0.485 0.198,0.485C0.13,0.485 0.076,0.541 0.076,0.611C0.076,0.679 0.13,0.735 0.197,0.735M0.14,0.518L0.182,0.518L0.182,0.599L0.187,0.599L0.227,0.518L0.277,0.518L0.23,0.606C0.255,0.612 0.268,0.629 0.268,0.655C0.268,0.693 0.248,0.708 0.199,0.708L0.14,0.708L0.14,0.518M0.182,0.674C0.207,0.674 0.224,0.674 0.224,0.652C0.224,0.634 0.214,0.628 0.182,0.628L0.182,0.674Z" style="fill:rgb(134,150,6);fill-rule:nonzero;"/>
    </g>
    <g transform="matrix(1,0,0,-1,-30.277,135.78)">
        <rect x="30.277" y="56.198" width="219.577" height="79.582" style="fill:rgb(134,150,6);fill-rule:nonzero;"/>
    </g>
    <g transform="matrix(1,0,0,-1,191.788,50.9912)">
        <path d="M0,0C0.229,0 0.451,-0.058 0.67,-0.176C0.887,-0.293 1.057,-0.461 1.178,-0.679C1.299,-0.898 1.36,-1.126 1.36,-1.362C1.36,-1.597 1.301,-1.823 1.181,-2.039C1.061,-2.256 0.894,-2.424 0.677,-2.543C0.462,-2.664 0.235,-2.723 0,-2.723C-0.236,-2.723 -0.462,-2.664 -0.678,-2.543C-0.894,-2.424 -1.063,-2.256 -1.182,-2.039C-1.303,-1.823 -1.363,-1.597 -1.363,-1.362C-1.363,-1.126 -1.302,-0.898 -1.18,-0.679C-1.057,-0.461 -0.887,-0.293 -0.67,-0.176C-0.452,-0.058 -0.229,0 0,0M0,-0.226C-0.192,-0.226 -0.378,-0.275 -0.559,-0.372C-0.74,-0.47 -0.882,-0.611 -0.984,-0.793C-1.086,-0.975 -1.137,-1.165 -1.137,-1.362C-1.137,-1.559 -1.087,-1.746 -0.987,-1.926C-0.886,-2.106 -0.746,-2.247 -0.565,-2.347C-0.385,-2.448 -0.197,-2.498 0,-2.498C0.196,-2.498 0.384,-2.448 0.565,-2.347C0.745,-2.247 0.886,-2.106 0.985,-1.926C1.085,-1.746 1.135,-1.559 1.135,-1.362C1.135,-1.165 1.084,-0.975 0.982,-0.793C0.881,-0.611 0.739,-0.47 0.557,-0.372C0.376,-0.275 0.19,-0.226 0,-0.226M-0.598,-2.114L-0.598,-0.65L-0.094,-0.65C0.078,-0.65 0.203,-0.664 0.28,-0.691C0.357,-0.718 0.418,-0.765 0.464,-0.833C0.51,-0.9 0.533,-0.971 0.533,-1.047C0.533,-1.153 0.495,-1.247 0.418,-1.326C0.341,-1.405 0.24,-1.45 0.113,-1.459C0.165,-1.481 0.206,-1.507 0.237,-1.537C0.296,-1.595 0.368,-1.691 0.454,-1.827L0.633,-2.114L0.345,-2.114L0.215,-1.883C0.113,-1.701 0.029,-1.588 -0.033,-1.542C-0.076,-1.509 -0.139,-1.492 -0.222,-1.493L-0.362,-1.493L-0.362,-2.114L-0.598,-2.114ZM-0.362,-1.29L-0.074,-1.29C0.063,-1.29 0.156,-1.269 0.206,-1.228C0.256,-1.188 0.282,-1.134 0.282,-1.067C0.282,-1.024 0.269,-0.985 0.245,-0.952C0.221,-0.917 0.188,-0.892 0.145,-0.875C0.102,-0.858 0.024,-0.85 -0.092,-0.85L-0.362,-0.85L-0.362,-1.29Z" style="fill:white;fill-rule:nonzero;"/>
    </g>
    <g transform="matrix(1,0,0,-1,34.1726,51.8398)">
        <path d="M0,0L3.658,0L3.335,-1.076C2.42,-4.034 2.205,-4.679 1.667,-5.432C1.345,-5.916 0.86,-6.293 0.269,-6.454C-0.215,-6.615 -0.915,-6.67 -1.721,-6.67C-2.797,-6.67 -3.174,-6.615 -4.142,-6.347L-5.271,-10.757C-3.227,-11.403 -2.367,-11.564 -0.753,-11.564C4.68,-11.564 7.046,-8.982 9.144,-0.968L15.921,25.011L9.628,25.011L5.271,6.347L5.11,4.948L5.11,3.873L4.411,3.873L4.411,4.948L4.195,6.347L-0.968,25.011L-7.745,25.011L0,0Z" style="fill:white;fill-rule:nonzero;"/>
    </g>
    <g transform="matrix(1,0,0,-1,51.4142,40.1139)">
        <path d="M0,0C0,-8.176 4.733,-13.393 11.995,-13.393C19.471,-13.393 24.204,-8.068 24.204,0.269C24.204,8.66 19.632,13.877 12.318,13.877C4.733,13.877 0,8.552 0,0M6.562,0.323C6.562,5.863 8.498,9.036 12.048,9.036C15.652,9.036 17.642,5.917 17.642,0.215C17.642,-5.433 15.706,-8.552 12.21,-8.552C8.552,-8.552 6.562,-5.433 6.562,0.323" style="fill:white;fill-rule:nonzero;"/>
    </g>
    <g transform="matrix(1,0,0,-1,103.88,26.8823)">
        <path d="M0,0C-0.592,0.054 -1.129,0.107 -1.614,0.107C-3.442,0.107 -4.572,-0.484 -6.024,-2.259C-7.638,-0.807 -8.444,-0.376 -10.327,0C-11.457,0.269 -12.694,0.43 -13.985,0.43C-20.654,0.43 -25.118,-3.335 -25.118,-8.875C-25.118,-11.241 -24.204,-13.501 -22.644,-14.953C-22.322,-15.275 -21.784,-15.652 -21.085,-16.136L-22.914,-17.588C-24.312,-18.718 -25.172,-19.794 -25.172,-20.547C-25.172,-20.977 -24.796,-22.053 -24.258,-23.128C-23.72,-24.204 -23.129,-25.011 -22.537,-25.388C-22.053,-25.764 -21.246,-25.872 -19.363,-25.872L-18.825,-25.872C-17.642,-25.872 -16.674,-25.818 -15.975,-25.818L-12.909,-25.818C-10.219,-25.818 -9.413,-25.979 -8.498,-26.463C-7.745,-26.893 -7.422,-27.485 -7.422,-28.614C-7.422,-30.981 -9.681,-32.165 -14.092,-32.165C-18.072,-32.165 -20.332,-30.82 -20.332,-28.507C-20.332,-27.539 -20.116,-27.109 -19.471,-26.786L-19.471,-26.571L-25.333,-26.571C-25.872,-27.808 -25.979,-28.4 -25.979,-29.314C-25.979,-33.886 -21.784,-36.521 -14.576,-36.521C-5.809,-36.521 -1.291,-33.51 -1.291,-27.7C-1.291,-22.859 -4.034,-20.923 -10.919,-20.923L-11.672,-20.923L-16.513,-21.031L-16.728,-21.031C-18.449,-21.031 -19.255,-20.655 -19.255,-19.74C-19.255,-19.202 -18.933,-18.664 -18.288,-18.126L-17.588,-17.535C-15.975,-17.803 -15.329,-17.857 -14.092,-17.857C-7.315,-17.857 -3.066,-14.469 -3.066,-8.982C-3.066,-7.369 -3.281,-6.67 -4.034,-5.056C-3.173,-4.679 -2.904,-4.572 -2.205,-4.572C-1.667,-4.572 -1.076,-4.679 -0.538,-4.841L0,-5.056L0,0ZM-13.823,-3.873C-11.026,-3.873 -9.251,-5.755 -9.251,-8.767C-9.251,-11.726 -11.134,-13.662 -14.038,-13.662C-16.943,-13.662 -18.772,-11.779 -18.772,-8.767C-18.772,-5.809 -16.836,-3.873 -13.823,-3.873" style="fill:white;fill-rule:nonzero;"/>
    </g>
    <g transform="matrix(1,0,0,-1,131.894,26.8823)">
        <path d="M0,0C-0.592,0.054 -1.13,0.107 -1.614,0.107C-3.443,0.107 -4.572,-0.484 -6.025,-2.259C-7.638,-0.807 -8.445,-0.376 -10.328,0C-11.457,0.269 -12.694,0.43 -13.985,0.43C-20.655,0.43 -25.119,-3.335 -25.119,-8.875C-25.119,-11.241 -24.205,-13.501 -22.645,-14.953C-22.322,-15.275 -21.784,-15.652 -21.085,-16.136L-22.914,-17.588C-24.312,-18.718 -25.173,-19.794 -25.173,-20.547C-25.173,-20.977 -24.796,-22.053 -24.258,-23.128C-23.72,-24.204 -23.129,-25.011 -22.537,-25.388C-22.053,-25.764 -21.246,-25.872 -19.364,-25.872L-18.826,-25.872C-17.642,-25.872 -16.674,-25.818 -15.975,-25.818L-12.909,-25.818C-10.22,-25.818 -9.413,-25.979 -8.499,-26.463C-7.746,-26.893 -7.423,-27.485 -7.423,-28.614C-7.423,-30.981 -9.682,-32.165 -14.092,-32.165C-18.073,-32.165 -20.332,-30.82 -20.332,-28.507C-20.332,-27.539 -20.116,-27.109 -19.471,-26.786L-19.471,-26.571L-25.334,-26.571C-25.872,-27.808 -25.98,-28.4 -25.98,-29.314C-25.98,-33.886 -21.784,-36.521 -14.577,-36.521C-5.809,-36.521 -1.291,-33.51 -1.291,-27.7C-1.291,-22.859 -4.034,-20.923 -10.919,-20.923L-11.672,-20.923L-16.513,-21.031L-16.728,-21.031C-18.449,-21.031 -19.256,-20.655 -19.256,-19.74C-19.256,-19.202 -18.933,-18.664 -18.288,-18.126L-17.588,-17.535C-15.975,-17.803 -15.329,-17.857 -14.092,-17.857C-7.315,-17.857 -3.066,-14.469 -3.066,-8.982C-3.066,-7.369 -3.281,-6.67 -4.034,-5.056C-3.174,-4.679 -2.905,-4.572 -2.205,-4.572C-1.667,-4.572 -1.076,-4.679 -0.538,-4.841L0,-5.056L0,0ZM-13.823,-3.873C-11.027,-3.873 -9.252,-5.755 -9.252,-8.767C-9.252,-11.726 -11.134,-13.662 -14.039,-13.662C-16.943,-13.662 -18.772,-11.779 -18.772,-8.767C-18.772,-5.809 -16.836,-3.873 -13.823,-3.873" style="fill:white;fill-rule:nonzero;"/>
    </g>
    <g transform="matrix(1,0,0,-1,135.644,52.9155)">
        <path d="M0,0L6.239,0L6.239,26.463L0,25.495L0,0ZM-0.807,33.295C-0.807,31.304 0.807,29.96 3.119,29.96C5.486,29.96 7.046,31.304 7.046,33.348C7.046,35.338 5.486,36.737 3.066,36.737C0.753,36.737 -0.807,35.338 -0.807,33.295" style="fill:white;fill-rule:nonzero;"/>
    </g>
    <g transform="matrix(1,0,0,-1,166.394,46.2455)">
        <path d="M0,0C-2.098,-1.076 -3.012,-1.452 -4.464,-1.722C-5.271,-1.883 -6.078,-1.937 -6.938,-1.937C-11.241,-1.937 -13.716,0.107 -14.092,3.98L-14.307,4.464L-14.684,4.894L-14.523,5.056L-13.985,4.787L-13.447,4.679L2.636,4.679C2.689,5.432 2.689,5.97 2.689,6.347C2.689,15.49 -0.915,20.009 -8.229,20.009C-15.814,20.009 -20.601,14.684 -20.601,6.239C-20.601,-2.152 -16.029,-7.208 -8.337,-7.208C-5.594,-7.208 -2.689,-6.562 -0.538,-5.54C-0.054,-5.271 0.645,-4.895 1.559,-4.303L0,0ZM-3.711,9.197L-14.146,9.197C-13.823,13.178 -11.887,15.222 -8.552,15.222C-5.325,15.222 -3.765,13.285 -3.711,9.197" style="fill:white;fill-rule:nonzero;"/>
    </g>
    <g transform="matrix(1,0,0,-1,171.567,50.6561)">
        <path d="M0,0C2.312,-1.506 3.335,-1.937 5.594,-2.421C6.777,-2.689 8.014,-2.851 9.197,-2.851C15.491,-2.851 19.417,0.538 19.417,5.863C19.417,10.004 17.104,12.318 11.511,13.77C8.606,14.522 7.799,14.845 7.207,15.329C6.723,15.759 6.454,16.351 6.454,16.943C6.454,18.503 7.853,19.31 10.703,19.31C13.447,19.31 15.383,18.718 17.481,17.319L18.772,21.892C16.781,23.182 15.867,23.559 14.2,23.936C12.963,24.204 11.618,24.312 10.273,24.312C3.98,24.312 0.215,21.3 0.215,16.19C0.215,14.146 0.968,12.318 2.259,11.241C3.442,10.273 5.325,9.413 8.175,8.606C12.102,7.476 13.07,6.777 13.07,5.056C13.07,3.281 11.564,2.312 8.714,2.312C7.692,2.312 6.508,2.42 5.648,2.636C3.872,3.012 3.012,3.389 1.129,4.733L0,0Z" style="fill:white;fill-rule:nonzero;"/>
    </g>
</svg>
