<svg width="105" height="60" viewBox="0 0 105 60" fill="none" xmlns="http://www.w3.org/2000/svg">
  <path fill-rule="evenodd" clip-rule="evenodd" d="M14.8578 17.6958C11.2002 10.8465 7.65345 14.3562 6.8752 19.6123C5.18665 31.0165 6.16829 38.2917 0.826832 49.7323C-0.244975 52.0279 3.2459 53.2022 4.40183 50.9797C3.54264 53.2221 6.14025 55.1904 7.77467 51.9862C7.09865 54.5496 10.3804 55.7304 11.6874 53.1309C11.5351 55.1314 15.138 55.3175 15.4161 53.3564C14.9286 43.526 12.2554 23.4019 12.956 19.1519C13.4633 18.1245 14.0815 17.9141 14.8578 17.6958Z" fill="white"/>
  <path fill-rule="evenodd" clip-rule="evenodd" d="M29.8667 17.7098C33.5242 10.8605 37.071 14.3702 37.8493 19.6263C39.5378 31.0306 38.5563 38.3057 43.8978 49.7464C44.9696 52.042 41.4786 53.2163 40.3228 50.9937C41.182 53.2362 38.5846 55.2045 36.95 52.0002C37.626 54.5636 34.3442 55.7444 33.0372 53.145C33.1893 55.1455 29.5865 55.3317 29.3083 53.3705C29.7959 43.54 32.4691 23.416 31.7684 19.166C31.2613 18.1385 30.6432 17.9281 29.8667 17.7098Z" fill="white"/>
  <path fill-rule="evenodd" clip-rule="evenodd" d="M16.4243 57.9529C15.345 45.8152 14.3858 36.1797 13.0293 20.763C12.8293 18.4905 14.1098 16.1012 19.5497 18.9686C16.1052 16.532 15.2268 12.1581 17.2789 9.23098C19.385 6.22588 25.4776 6.32746 28.0715 8.94647C30.6755 11.5753 28.8826 15.4116 25.2609 18.9906C26.5794 18.441 31.9377 16.2245 31.9164 20.9382C31.8666 31.9357 28.7496 44.2767 28.7798 57.9606C23.8549 59.3719 20.419 59.377 16.4245 57.9531L16.4243 57.9529Z" fill="#E11E0F"/>
  <path fill-rule="evenodd" clip-rule="evenodd" d="M24.2617 33.6876C32.3033 26.153 27.4902 20.6216 24.1832 25.0424C21.2255 20.2095 15.8668 26.9021 24.2617 33.6876Z" fill="white"/>
  <path d="M17.1601 59.3116C17.1899 59.6467 16.9349 59.9419 16.5907 59.9708C16.2466 59.9998 15.9431 59.7516 15.9133 59.4166L17.1601 59.3116ZM12.4058 20.8149L13.6526 20.7108L13.7789 22.1434L13.9037 23.5513L14.0269 24.9356L14.1484 26.2973L14.2688 27.6372L14.3875 28.9568L14.505 30.2566L14.6211 31.5377L14.7361 32.8015L14.8498 34.0487L14.9625 35.2802L15.074 36.4972L15.1846 37.7006L15.2941 38.8913L15.4025 40.0705L15.5102 41.239L15.7232 43.5483L15.9334 45.8273L16.0377 46.958L16.1414 48.084L16.2447 49.2064L16.3472 50.3263L16.4497 51.4446L16.5517 52.5624L16.6534 53.6805L16.7549 54.8L16.8563 55.922L16.9576 57.0474L17.0588 58.1771L17.1599 59.3122L15.9131 59.4171L15.812 58.2824L15.7108 57.1532L15.6096 56.0282L15.5083 54.9067L15.4068 53.7877L15.3051 52.6699L15.203 51.5527L15.1006 50.4345L14.998 49.315L14.8947 48.1928L14.7911 47.0668L14.6869 45.9363L14.4768 43.6573L14.2638 41.3479L14.1559 40.1793L14.0474 39.0001L13.9379 37.8092L13.8274 36.6057L13.7159 35.3884L13.6032 34.1568L13.4895 32.9094L13.3744 31.6453L13.2584 30.3636L13.1409 29.0636L13.022 27.7436L12.9016 26.4031L12.7801 25.0409L12.6569 23.6564L12.5321 22.2482L12.4058 20.8152V20.8149ZM12.4058 20.8149C12.3763 20.4798 12.6315 20.1848 12.9758 20.1561C13.32 20.1274 13.6231 20.3758 13.6526 20.7108L12.4058 20.8149ZM19.1816 19.461L19.9174 18.4758L19.2515 19.504L18.7697 19.2585L18.3136 19.0432L17.883 18.857L17.4774 18.6985L17.0969 18.5668L16.7414 18.4608L16.4104 18.379L16.1041 18.3202L15.8219 18.2827L15.564 18.2649L15.3297 18.2651L15.1184 18.2814L14.929 18.3121L14.76 18.3548L14.6099 18.4084L14.4762 18.4717L14.3566 18.5439L14.2489 18.6251L14.1515 18.7154L14.0632 18.8154L13.9828 18.9258L13.9106 19.0466L13.8464 19.1779L13.7903 19.3195L13.7425 19.4707L13.7037 19.6306L13.6735 19.7982L13.6522 19.9723L13.6396 20.152L13.6357 20.3358L13.6403 20.5225L13.6529 20.7108L12.4061 20.8149L12.39 20.5767L12.3843 20.3376L12.3892 20.0982L12.4061 19.8589L12.4354 19.6209L12.478 19.3846L12.535 19.151L12.6075 18.9212L12.697 18.6962L12.8042 18.4774L12.9309 18.2663L13.0775 18.0651L13.2452 17.8758L13.4341 17.701L13.6437 17.5432L13.8733 17.4047L14.122 17.2871L14.3882 17.1922L14.6706 17.1205L14.9684 17.0725L15.2813 17.0483L15.6095 17.0478L15.9529 17.0714L16.3118 17.1191L16.6873 17.1913L17.0802 17.2885L17.4915 17.411L17.9217 17.5598L18.3716 17.7355L18.8421 17.939L19.3341 18.1712L19.8481 18.433L19.1821 19.4612L19.1816 19.461ZM19.8475 18.4328C20.1514 18.5931 20.2642 18.9626 20.0997 19.2584C19.9352 19.5541 19.5554 19.664 19.2515 19.504L19.8475 18.4328ZM16.7618 8.88743L17.7957 9.5737L17.6306 9.82388L17.481 10.0809L17.3466 10.3447L17.2274 10.6149L17.123 10.8908L17.0336 11.1718L16.9594 11.4577L16.9001 11.7478L16.8559 12.0415L16.8266 12.3385L16.8124 12.6381L16.813 12.9397L16.8286 13.2425L16.8591 13.5466L16.9044 13.8505L16.9647 14.1542L17.0398 14.4568L17.1298 14.7578L17.2343 15.0568L17.3537 15.3529L17.4879 15.6457L17.6366 15.9346L17.7997 16.2186L17.9776 16.4976L18.17 16.771L18.3766 17.0381L18.5977 17.2983L18.833 17.5508L19.0828 17.7953L19.347 18.0313L19.6253 18.2582L19.918 18.4753L19.1821 19.4605L18.8439 19.2096L18.5217 18.9471L18.2156 18.6733L17.9254 18.3894L17.6516 18.0953L17.3942 17.7925L17.1534 17.4814L16.929 17.1624L16.7214 16.8365L16.5304 16.5041L16.3565 16.1661L16.1992 15.823L16.0592 15.4751L15.9362 15.1237L15.8302 14.7691L15.7419 14.4119L15.6705 14.0527L15.6167 13.6924L15.5805 13.3314L15.5619 12.9705L15.5612 12.6101L15.5784 12.2513L15.6135 11.8943L15.667 11.5397L15.7388 11.1888L15.829 10.842L15.9376 10.4998L16.0649 10.1631L16.2109 9.83268L16.3758 9.50926L16.5595 9.1936L16.7622 8.88655L16.7618 8.88743ZM16.7618 8.88743C16.9565 8.60962 17.3459 8.53814 17.6313 8.72758C17.9167 8.91701 17.9904 9.29606 17.7955 9.57388L16.7617 8.88761L16.7618 8.88743ZM28.5219 8.52335L27.621 9.3686L27.3992 9.16015L27.1585 8.96279L26.8999 8.77722L26.6244 8.60346L26.3334 8.44236L26.0281 8.29413L25.7097 8.15909L25.3798 8.03779L25.0397 7.93022L24.691 7.83708L24.3349 7.75839L23.9734 7.6943L23.6075 7.64536L23.2388 7.6112L22.8691 7.59219L22.4994 7.58867L22.1317 7.60029L21.7672 7.6274L21.4074 7.66983L21.0539 7.72775L20.7081 7.80099L20.3716 7.88937L20.0458 7.99289L19.732 8.11156L19.4317 8.24483L19.1458 8.39254L18.876 8.55451L18.6229 8.73074L18.3877 8.92071L18.171 9.12441L17.9737 9.34201L17.7958 9.57388L16.762 8.88761L17.002 8.57423L17.2664 8.28286L17.5527 8.01349L17.859 7.76613L18.1831 7.54043L18.5235 7.33603L18.8783 7.1524L19.246 6.9892L19.6251 6.84589L20.0142 6.72212L20.4119 6.61754L20.8169 6.53163L21.2281 6.4642L21.6442 6.4149L22.0637 6.38392L22.4854 6.37036L22.9084 6.37459L23.3311 6.39607L23.7525 6.43515L24.1711 6.49131L24.5859 6.56473L24.9957 6.6554L25.3989 6.76332L25.7945 6.88832L26.1811 7.03057L26.5577 7.19025L26.9226 7.36754L27.2747 7.56244L27.6121 7.77529L27.9337 8.00627L28.2379 8.25557L28.5224 8.52317L28.5219 8.52335ZM28.5219 8.52335C28.7617 8.7656 28.7544 9.15117 28.5057 9.38444C28.2571 9.61771 27.8608 9.61085 27.621 9.3686L28.5219 8.52335ZM25.0143 18.4304L25.507 19.5499L24.8149 18.5629L25.1411 18.2348L25.4557 17.9061L25.7585 17.5767L26.0491 17.2475L26.3268 16.9184L26.5913 16.5901L26.8417 16.2626L27.0783 15.9365L27.2999 15.6124L27.5064 15.2902L27.6975 14.9705L27.8725 14.654L28.0312 14.3406L28.1731 14.0311L28.2979 13.7258L28.4056 13.4253L28.4956 13.1295L28.568 12.8394L28.6225 12.5552L28.6591 12.277L28.6775 12.0052L28.6781 11.7395L28.6603 11.48L28.6245 11.2267L28.57 10.979L28.4969 10.7366L28.4042 10.4989L28.2915 10.2656L28.1581 10.0362L28.0026 9.81032L27.8242 9.58796L27.6215 9.36895L28.5224 8.5237L28.7824 8.80469L29.016 9.09571L29.2229 9.39659L29.4031 9.7061L29.5566 10.0239L29.6832 10.3489L29.7831 10.6799L29.8569 11.0161L29.9052 11.3564L29.9288 11.7003L29.9283 12.0464L29.9046 12.3946L29.8589 12.7445L29.7916 13.0952L29.7039 13.4468L29.5965 13.799L29.4704 14.1519L29.3259 14.5049L29.1638 14.8582L28.9848 15.2119L28.7894 15.5654L28.5783 15.9189L28.3519 16.2723L28.1105 16.6253L27.8549 16.9776L27.5857 17.3295L27.303 17.6807L27.0076 18.0307L26.6999 18.3797L26.3802 18.7272L26.0489 19.0733L25.7069 19.4175L25.0147 18.4306L25.0143 18.4304ZM25.7065 19.4173C25.4641 19.6568 25.0678 19.6598 24.8216 19.4239C24.5754 19.1879 24.5724 18.8022 24.8149 18.5628L25.7063 19.4173H25.7065ZM32.542 20.9402L31.2906 20.9349L31.2787 20.5575L31.2411 20.2251L31.1814 19.9358L31.103 19.6872L31.0095 19.4763L30.903 19.2987L30.7853 19.1492L30.6565 19.0233L30.515 18.9168L30.3592 18.8267L30.1879 18.7517L30.0001 18.6916L29.7964 18.6464L29.5781 18.6159L29.347 18.6001L29.1053 18.5989L28.8549 18.611L28.5982 18.6358L28.3375 18.6723L28.075 18.7189L27.8127 18.7746L27.553 18.8376L27.2978 18.9068L27.0488 18.9804L26.8081 19.057L26.5778 19.1351L26.3593 19.2131L26.1548 19.2895L25.9656 19.3631L25.7935 19.432L25.6407 19.4946L25.5076 19.5499L25.0149 18.4304L25.1521 18.3732L25.3134 18.3071L25.496 18.2343L25.6985 18.1556L25.9195 18.073L26.1563 17.9883L26.4077 17.9031L26.6724 17.8188L26.9482 17.7372L27.2341 17.6598L27.5284 17.5885L27.8294 17.5247L28.1362 17.4702L28.4474 17.4267L28.7617 17.3962L29.0776 17.3809L29.3944 17.3828L29.7107 17.4045L30.025 17.4487L30.3358 17.5182L30.6408 17.6163L30.9372 17.7462L31.2205 17.9107L31.486 18.1114L31.7288 18.349L31.9439 18.6221L32.1278 18.9293L32.2786 19.2688L32.3956 19.6394L32.4785 20.0409L32.5275 20.4742L32.5425 20.9406L32.542 20.9402ZM32.542 20.9402C32.5404 21.2765 32.2589 21.548 31.9134 21.5466C31.5678 21.5452 31.289 21.2712 31.2904 20.9349L32.5418 20.9402H32.542ZM29.4409 59.3949L28.1895 59.3872L28.206 58.1166L28.2386 56.8428L28.2858 55.5664L28.3469 54.2884L28.4204 53.0094L28.5057 51.7303L28.6014 50.4518L28.7065 49.1745L28.8199 47.8993L28.9408 46.6272L29.0676 45.3585L29.1997 44.0941L29.3358 42.8351L29.4751 41.5819L29.6164 40.3354L29.7584 39.0965L29.9002 37.8657L30.041 36.6441L30.1794 35.4323L30.3145 34.2311L30.4451 33.0413L30.5704 31.8636L30.6891 30.699L30.8002 29.5481L30.9026 28.4121L30.9954 27.2911L31.0774 26.1865L31.1477 25.0989L31.2052 24.029L31.2489 22.9779L31.2776 21.9462L31.2904 20.9348L32.5418 20.9401L32.5289 21.9702L32.4996 23.0189L32.4552 24.0853L32.397 25.1687L32.326 26.2686L32.2431 27.3839L32.1496 28.5142L32.0465 29.6583L31.9347 30.8159L31.8154 31.9863L31.6896 33.1684L31.5586 34.3619L31.4232 35.5656L31.2846 36.7791L31.1438 38.0013L31.002 39.2318L30.86 40.4696L30.7189 41.714L30.58 42.9641L30.4442 44.2194L30.3125 45.4789L30.186 46.7419L30.0658 48.0078L29.9527 49.2756L29.8484 50.5444L29.7534 51.8136L29.6688 53.0826L29.596 54.3504L29.5355 55.6162L29.4888 56.8793L29.4567 58.1388L29.4404 59.3942L29.4409 59.3949ZM29.4409 59.3949C29.4388 59.7312 29.1566 60.0021 28.8112 60C28.4656 59.9979 28.1873 59.7236 28.1895 59.3872L29.4409 59.3949Z" fill="#1E0A00"/>
  <path d="M30.4219 17.9908C30.2625 18.2892 29.8847 18.4052 29.5782 18.2503C29.2717 18.0954 29.1522 17.7276 29.3116 17.4292L30.4221 17.9908H30.4219ZM38.4685 19.5397L37.2299 19.7133L37.1523 19.2468L37.0599 18.7926L36.9532 18.3521L36.8329 17.9274L36.6994 17.5202L36.5539 17.1323L36.397 16.7654L36.2293 16.4213L36.0523 16.1015L35.867 15.8084L35.6746 15.5433L35.4768 15.3074L35.2751 15.1024L35.0717 14.9288L34.8682 14.7873L34.6657 14.6769L34.4646 14.5968L34.2642 14.5454L34.0617 14.5218L33.8532 14.5264L33.6343 14.5614L33.402 14.6304L33.1548 14.7378L32.8925 14.8883L32.6158 15.0857L32.3265 15.3332L32.0263 15.6336L31.7175 15.9885L31.4013 16.4003L31.079 16.8702L30.752 17.3998L30.4216 17.9904L29.3111 17.4288L29.6655 16.7956L30.0213 16.2191L30.3786 15.6982L30.7377 15.2311L31.0988 14.8162L31.4627 14.4521L31.8301 14.1378L32.2019 13.8725L32.5792 13.6565L32.9613 13.4906L33.3475 13.376L33.7353 13.314L34.1204 13.3054L34.4974 13.3489L34.8616 13.4417L35.2093 13.5799L35.5387 13.7589L35.8491 13.9744L36.1407 14.2227L36.4146 14.5008L36.6714 14.8065L36.9119 15.1378L37.1366 15.4933L37.346 15.8711L37.5403 16.2702L37.7196 16.689L37.8836 17.1262L38.0321 17.5802L38.1654 18.05L38.2825 18.5339L38.3837 19.0308L38.468 19.539L38.4685 19.5397ZM38.4685 19.5397C38.5179 19.8725 38.2804 20.1815 37.9386 20.2294C37.5966 20.2772 37.2792 20.0463 37.2301 19.7133L38.4687 19.5397H38.4685ZM44.4674 49.4946L43.3281 49.9985L42.8408 48.927L42.3889 47.8783L41.9708 46.8504L41.5851 45.8422L41.23 44.852L40.9041 43.8788L40.6056 42.9207L40.3328 41.9765L40.0843 41.0448L39.8584 40.124L39.6534 39.2129L39.4676 38.3103L39.2993 37.4142L39.1471 36.5233L39.009 35.6367L38.8835 34.7524L38.769 33.8693L38.6636 32.9857L38.5658 32.1001L38.474 31.211L38.3864 30.317L38.3014 29.4165L38.2172 28.508L38.1324 27.5901L38.0451 26.661L37.9539 25.7191L37.8569 24.763L37.7528 23.7911L37.6394 22.8017L37.5157 21.7934L37.3795 20.7646L37.2297 19.7133L38.4684 19.5397L38.6201 20.6031L38.7577 21.6436L38.8828 22.6623L38.9971 23.6605L39.1022 24.6403L39.1996 25.6024L39.2913 26.5485L39.3788 27.4804L39.4637 28.3991L39.5478 29.3064L39.6325 30.2038L39.7194 31.0927L39.8105 31.9746L39.9072 32.8508L40.0112 33.7233L40.1241 34.5934L40.2474 35.4626L40.3829 36.3327L40.5318 37.205L40.6965 38.0813L40.8778 38.9633L41.078 39.8526L41.2983 40.7504L41.5407 41.6589L41.8066 42.5793L42.0977 43.5135L42.4155 44.4628L42.762 45.4291L43.1388 46.4138L43.5475 47.4187L43.9898 48.4453L44.4674 49.4951V49.4946ZM44.4674 49.4946C44.6103 49.8008 44.4711 50.1619 44.1566 50.301C43.8421 50.44 43.471 50.3047 43.328 49.9985L44.4672 49.4946H44.4674ZM40.8924 50.742L39.7532 51.2458L40.881 50.7189L40.9684 50.8698L41.0623 51.0018L41.1624 51.1173L41.2678 51.2177L41.3778 51.3038L41.4923 51.377L41.6108 51.4381L41.7328 51.4874L41.8577 51.5251L41.985 51.5518L42.1138 51.5675L42.2427 51.5724L42.3706 51.5668L42.4972 51.5508L42.6196 51.5252L42.7373 51.4902L42.8495 51.4464L42.9542 51.3948L43.0507 51.336L43.1381 51.271L43.2158 51.2004L43.2836 51.1251L43.3409 51.0457L43.3883 50.9613L43.4258 50.8724L43.4527 50.7772L43.4692 50.6744L43.4735 50.5628L43.4639 50.44L43.4384 50.3057L43.3938 50.1589L43.3278 49.9985L44.467 49.4946L44.5755 49.758L44.6548 50.0207L44.7043 50.2812L44.7244 50.5379L44.7146 50.7892L44.6761 51.0316L44.6103 51.2638L44.5187 51.4833L44.404 51.6877L44.2684 51.8761L44.1149 52.0473L43.946 52.201L43.7635 52.3369L43.5693 52.4552L43.3654 52.5557L43.1533 52.6386L42.9338 52.7039L42.7084 52.7511L42.4789 52.7798L42.2455 52.79L42.0104 52.7809L41.7745 52.7518L41.5391 52.7025L41.3061 52.6318L41.0773 52.5393L40.8548 52.4247L40.6404 52.2876L40.4363 52.1277L40.245 51.9455L40.0678 51.7411L39.907 51.515L39.7643 51.2687L40.8922 50.7418L40.8924 50.742ZM39.7645 51.2689C39.6085 50.9689 39.7319 50.6025 40.0401 50.4506C40.3484 50.2987 40.725 50.4189 40.881 50.7189L39.7645 51.2689ZM37.54 51.7976L36.3601 52.2032L37.5259 51.7624L37.6395 52.0011L37.7576 52.2092L37.8782 52.3881L37.9998 52.5395L38.1207 52.6654L38.2396 52.7675L38.3553 52.848L38.4673 52.9096L38.5754 52.9545L38.6797 52.9846L38.7809 53.0018L38.8796 53.0075L38.9767 53.0022L39.0725 52.9862L39.1664 52.9599L39.2587 52.9233L39.3483 52.8768L39.4348 52.8201L39.5169 52.7539L39.5936 52.6788L39.6637 52.5951L39.7265 52.5034L39.7812 52.4045L39.8266 52.2988L39.8619 52.1872L39.8866 52.0694L39.8999 51.946L39.9006 51.8173L39.8877 51.683L39.8598 51.543L39.8156 51.3973L39.7532 51.2457L40.8924 50.7418L40.9973 50.9971L41.0752 51.2536L41.126 51.5094L41.1503 51.7624L41.149 52.011L41.1233 52.2532L41.0743 52.4876L41.0032 52.7127L40.911 52.9272L40.7998 53.1293L40.6702 53.3186L40.5236 53.4934L40.3612 53.6529L40.1839 53.7957L39.9931 53.9205L39.7895 54.0263L39.5744 54.1113L39.3496 54.1738L39.1167 54.2124L38.8775 54.2254L38.6345 54.2115L38.3906 54.1698L38.1485 54.0994L37.9113 54.0006L37.6809 53.8738L37.4592 53.7193L37.248 53.5379L37.0482 53.3304L36.8604 53.0965L36.6852 52.8367L36.5228 52.5506L36.3739 52.2383L37.5398 51.7974L37.54 51.7976ZM36.3741 52.2385C36.2392 51.9289 36.3876 51.5714 36.7056 51.4399C37.0237 51.3085 37.3912 51.4529 37.5261 51.7624L36.3741 52.2383V52.2385ZM32.8662 53.2275L34.064 52.8745L34.1419 53.0944L34.2282 53.2865L34.321 53.4525L34.4184 53.5939L34.5191 53.7126L34.6215 53.8108L34.7248 53.8904L34.8284 53.9538L34.9324 54.0022L35.037 54.0374L35.1424 54.0606L35.2485 54.0721L35.3554 54.0723L35.4626 54.0613L35.5696 54.0393L35.6757 54.0066L35.7794 53.9629L35.8795 53.909L35.9755 53.8446L36.066 53.7707L36.1496 53.6877L36.2257 53.5958L36.2935 53.4955L36.3519 53.3869L36.4002 53.2703L36.4375 53.1455L36.4628 53.0119L36.4751 52.8696L36.4726 52.7182L36.4541 52.5571L36.4172 52.3856L36.3603 52.2038L37.5401 51.7981L37.6291 52.0818L37.6894 52.3627L37.7215 52.6392L37.7258 52.9098L37.7032 53.1723L37.6555 53.4251L37.5833 53.6673L37.4883 53.8967L37.3724 54.1124L37.2375 54.3127L37.0849 54.4971L36.9163 54.6645L36.7335 54.814L36.5381 54.945L36.3308 55.0566L36.1137 55.1478L35.8883 55.2177L35.656 55.2652L35.4178 55.2892L35.1765 55.2884L34.9337 55.262L34.6919 55.2089L34.4541 55.1284L34.2229 55.0201L34.0008 54.8848L33.7907 54.7226L33.5944 54.5344L33.4135 54.321L33.2494 54.083L33.1028 53.8214L32.9748 53.5363L32.8657 53.2284L32.8662 53.2275ZM32.8662 53.2275C32.7661 52.9057 32.953 52.5656 33.2836 52.4682C33.6143 52.3708 33.9637 52.5527 34.0638 52.8744L32.866 53.2274L32.8662 53.2275Z" fill="#1E0A00"/>
  <path d="M24.5628 34.1871C24.3275 34.4168 23.9575 34.3973 23.7365 34.1436C23.5155 33.8897 23.5272 33.4974 23.7626 33.2677L24.5628 34.1871ZM23.9014 25.3307L24.9027 24.71L23.9328 24.6416L24.2718 24.2015L24.6226 23.8172L24.9831 23.4887L25.3517 23.2158L25.7268 22.9983L26.1064 22.8376L26.4882 22.7346L26.869 22.6913L27.2442 22.7096L27.6077 22.7911L27.952 22.9358L28.2685 23.1408L28.5499 23.401L28.7911 23.7103L28.9889 24.0628L29.1411 24.4526L29.2478 24.8753L29.3085 25.3286L29.3227 25.81L29.2895 26.3184L29.208 26.8527L29.0767 27.4119L28.8939 27.9952L28.6573 28.602L28.365 29.2314L28.015 29.8821L27.6047 30.5538L27.1315 31.2453L26.5932 31.9554L25.9875 32.6832L25.3115 33.4277L24.563 34.1874L23.7628 33.268L24.4791 32.5409L25.1219 31.833L25.6941 31.1457L26.1983 30.4804L26.6372 29.839L27.0138 29.2226L27.3308 28.6334L27.5912 28.0726L27.798 27.5425L27.9541 27.0445L28.0633 26.5806L28.1286 26.1524L28.154 25.7617L28.1437 25.4103L28.102 25.0992L28.034 24.8293L27.9444 24.6001L27.8381 24.4103L27.7184 24.2568L27.5876 24.1358L27.4457 24.0438L27.2905 23.9788L27.1187 23.9404L26.9283 23.9311L26.7182 23.955L26.4892 24.017L26.243 24.1212L25.983 24.2721L25.7122 24.4726L25.4344 24.7258L25.1533 25.0339L24.8718 25.3994L23.9019 25.3311L23.9014 25.3307ZM24.8713 25.399C24.6789 25.6702 24.3126 25.7205 24.0535 25.5114C23.7943 25.3022 23.7404 24.9129 23.9328 24.6416L24.8713 25.399ZM24.5733 32.5089L23.9058 33.5138L23.126 32.8913L22.4265 32.2673L21.8041 31.6437L21.2564 31.0226L20.7802 30.4054L20.373 29.7939L20.0323 29.1902L19.7552 28.5966L19.5398 28.0145L19.3834 27.4467L19.2838 26.8957L19.2388 26.364L19.2457 25.8541L19.3025 25.3696L19.4063 24.9133L19.5547 24.4885L19.7449 24.0982L19.9746 23.746L20.2405 23.4358L20.5393 23.1712L20.868 22.9566L21.2225 22.7961L21.5977 22.6943L21.9874 22.655L22.3855 22.6809L22.7845 22.7739L23.1783 22.9339L23.5606 23.1603L23.9273 23.4517L24.275 23.8075L24.6008 24.227L24.9027 24.7096L23.9014 25.3304L23.6643 24.951L23.4211 24.6383L23.1767 24.3879L22.9339 24.195L22.6965 24.0545L22.4659 23.9608L22.2428 23.9091L22.0273 23.895L21.8185 23.9163L21.6161 23.9712L21.4211 24.0596L21.2344 24.1818L21.0585 24.3374L20.8961 24.5269L20.7509 24.7496L20.6263 25.0052L20.5259 25.2929L20.4533 25.6115L20.4125 25.9603L20.4071 26.3379L20.4416 26.7432L20.5195 27.1749L20.6451 27.6309L20.8226 28.1099L21.0556 28.6101L21.3485 29.129L21.705 29.6645L22.129 30.2142L22.6244 30.776L23.1945 31.3473L23.8428 31.9254L24.5731 32.5085L24.5733 32.5089ZM24.5733 32.5089C24.8383 32.7094 24.9038 33.0971 24.7196 33.3746C24.5353 33.652 24.171 33.7143 23.9058 33.5138L24.5733 32.5089Z" fill="#1E0A00"/>
  <path d="M10.577 10.8805C10.2781 10.787 10.0969 10.4187 10.172 10.0579C10.2471 9.6972 10.5504 9.48048 10.8491 9.57379L10.577 10.8805ZM14.3202 10.3099L14.124 11.637L14.0189 11.6138L13.9131 11.5912L13.8064 11.569L13.6998 11.5474L13.5926 11.5263L13.4848 11.5055L13.3768 11.4851L13.268 11.465L13.1588 11.4449L13.0493 11.4252L12.9391 11.4053L12.8287 11.3854L12.7181 11.3655L12.6072 11.3454L12.4963 11.3252L12.3845 11.3048L12.2725 11.2836L12.1605 11.2623L12.0481 11.2405L11.9358 11.2183L11.8229 11.1953L11.7102 11.1715L11.5972 11.1472L11.4839 11.1218L11.3707 11.0956L11.2573 11.0683L11.144 11.04L11.0306 11.0108L10.9171 10.9801L10.8035 10.9483L10.6902 10.915L10.577 10.8803L10.8491 9.57361L10.9515 9.60478L11.0544 9.63506L11.1575 9.66411L11.2615 9.6921L11.3659 9.71921L11.4711 9.74544L11.5767 9.7708L11.6827 9.79527L11.7892 9.81904L11.896 9.84227L12.0036 9.86481L12.111 9.88664L12.2194 9.90812L12.3278 9.92925L12.4366 9.94984L12.5456 9.97027L12.6551 9.99034L12.7652 10.0104L12.8754 10.0303L12.9856 10.0502L13.096 10.0701L13.2066 10.09L13.3175 10.1101L13.4288 10.1305L13.5397 10.1511L13.6511 10.172L13.7624 10.1935L13.8741 10.2155L13.9857 10.238L14.0968 10.2611L14.2086 10.2851L14.3204 10.3097L14.3202 10.3099ZM14.3202 10.3099C14.6236 10.378 14.8255 10.7303 14.7712 11.0968C14.7171 11.4632 14.4271 11.7051 14.1238 11.637L14.3201 10.3099H14.3202Z" fill="#1E0A00"/>
  <path d="M11.9756 6.0134C11.7049 5.76393 11.6989 5.35284 11.9619 5.09527C12.2249 4.8377 12.6578 4.83136 12.9285 5.08083L11.9758 6.0134H11.9756ZM15.4862 7.30935L14.6513 8.33892L14.5464 8.26163L14.444 8.18505L14.3448 8.1097L14.2477 8.03505L14.1527 7.96075L14.0601 7.88734L13.9696 7.81463L13.8808 7.74227L13.7939 7.67044L13.7085 7.59878L13.6246 7.52748L13.5424 7.45653L13.4615 7.38593L13.3818 7.31568L13.3028 7.24544L13.2247 7.17519L13.1477 7.1053L13.0708 7.03523L12.9945 6.96481L12.9185 6.89456L12.8428 6.82414L12.767 6.75319L12.6912 6.68224L12.6145 6.6104L12.4606 6.46569L12.3032 6.31798L12.2235 6.24333L12.1422 6.16762L12.0594 6.09069L11.9752 6.01287L12.9279 5.0803L13.0146 5.16041L13.0992 5.23893L13.1825 5.31657L13.2641 5.39298L13.4224 5.54157L13.5765 5.68646L13.6517 5.75706L13.7266 5.82713L13.8008 5.89632L13.8745 5.96481L13.9478 6.03276L14.0205 6.09967L14.0936 6.16639L14.1669 6.23276L14.2404 6.29878L14.3143 6.36445L14.3888 6.43012L14.464 6.49579L14.5402 6.56128L14.6172 6.62695L14.6957 6.69262L14.7755 6.75864L14.857 6.82502L14.9404 6.89209L15.0258 6.9597L15.1126 7.02766L15.2022 7.09649L15.2943 7.16639L15.3885 7.23699L15.4856 7.30847L15.4862 7.30935ZM15.4862 7.30935C15.785 7.52783 15.8406 7.93558 15.61 8.21991C15.3795 8.50424 14.9503 8.55758 14.6513 8.33892L15.4862 7.30935Z" fill="#1E0A00"/>
  <path d="M15.9089 2.46059C15.7628 2.13013 15.9265 1.74915 16.2745 1.60989C16.6224 1.47062 17.0233 1.62538 17.1694 1.95566L15.9089 2.46041V2.46059ZM18.6702 5.14984L17.432 5.70196L17.3847 5.60565L17.3371 5.50917L17.2897 5.41234L17.2423 5.31534L17.1951 5.21833L17.1475 5.12097L17.1 5.02273L17.0524 4.92467L17.0052 4.8266L16.9576 4.72784L16.9101 4.62872L16.8625 4.52942L16.8151 4.42995L16.7674 4.32995L16.7198 4.2296L16.6723 4.12925L16.6245 4.02784L16.5769 3.92643L16.5294 3.82485L16.4816 3.72256L16.4341 3.61992L16.3865 3.51692L16.3388 3.41323L16.291 3.30918L16.2435 3.20495L16.1955 3.1002L16.148 2.99474L16.1001 2.88893L16.0523 2.78259L16.0044 2.67573L15.9568 2.56851L15.9089 2.46076L17.1694 1.95601L17.2162 2.06182L17.2631 2.1671L17.3099 2.27203L17.3568 2.37626L17.4037 2.48013L17.4505 2.58347L17.4974 2.68664L17.5444 2.78964L17.5913 2.89175L17.6381 2.99333L17.685 3.09474L17.7318 3.1958L17.7787 3.2965L17.8257 3.39685L17.8726 3.49685L17.9194 3.59597L17.9664 3.69544L18.0133 3.79421L18.0602 3.89263L18.107 3.99104L18.1539 4.08911L18.2007 4.18664L18.2476 4.284L18.2946 4.38154L18.3415 4.47854L18.3881 4.57467L18.4352 4.67115L18.4822 4.76763L18.5291 4.86358L18.5759 4.95918L18.6228 5.05477L18.6696 5.15002L18.6702 5.14984ZM18.6702 5.14984C18.8301 5.47431 18.6826 5.86111 18.3408 6.01357C17.9989 6.16604 17.592 6.02643 17.432 5.70196L18.6702 5.14984Z" fill="#1E0A00"/>
  <path d="M20.708 0.59322C20.6779 0.291284 20.9592 0.0264956 21.3361 0.00184776C21.7131 -0.0228001 22.0436 0.202023 22.0737 0.503784L20.708 0.59322ZM22.3877 4.53793L21.0192 4.59269L21.0115 4.46821L21.0039 4.34374L20.9961 4.21945L20.9883 4.09497L20.9803 3.97033L20.9721 3.84586L20.964 3.72156L20.9554 3.59691L20.9471 3.47209L20.9384 3.34744L20.9297 3.22262L20.9208 3.09797L20.9118 2.9735L20.9025 2.84867L20.8933 2.72367L20.8837 2.59867L20.8741 2.47385L20.8644 2.34885L20.8544 2.22368L20.8443 2.09885L20.8339 1.97368L20.8234 1.84815L20.8129 1.7228L20.8021 1.59762L20.7911 1.47209L20.7799 1.34656L20.7685 1.22104L20.7568 1.09551L20.7449 0.969628L20.7329 0.8441L20.7206 0.718396L20.7082 0.59234L22.0739 0.502903L22.0865 0.630016L22.0991 0.757304L22.1112 0.884417L22.1233 1.01135L22.135 1.13829L22.1465 1.2654L22.1577 1.39199L22.1689 1.51857L22.1797 1.64533L22.1905 1.77174L22.201 1.89797L22.2115 2.0242L22.2218 2.15061L22.2317 2.27684L22.2416 2.40308L22.2512 2.52913L22.2608 2.65501L22.2704 2.78072L22.2796 2.9066L22.2887 3.03248L22.2977 3.15836L22.3064 3.28388L22.3151 3.40941L22.3236 3.53494L22.3322 3.66029L22.3403 3.786L22.3485 3.91117L22.3565 4.03635L22.3646 4.16152L22.3724 4.28705L22.3801 4.41188L22.3877 4.53705V4.53793ZM22.3877 4.53793C22.4058 4.84057 22.1144 5.09814 21.7365 5.11311C21.3587 5.12807 21.0374 4.89515 21.0192 4.59251L22.3877 4.53776V4.53793Z" fill="#1E0A00"/>
  <path d="M25.9783 0.931245C26.1012 0.627373 26.4902 0.465577 26.8468 0.569626C27.2033 0.673675 27.393 1.00448 27.27 1.30836L25.9782 0.931245H25.9783ZM26.0825 4.9286L24.7504 4.67191L24.7818 4.55501L24.8135 4.43811L24.8457 4.3212L24.8783 4.2043L24.9113 4.08705L24.9447 3.97015L24.9782 3.85325L25.0125 3.73617L25.0469 3.61927L25.0819 3.50202L25.1174 3.38511L25.1532 3.26821L25.1894 3.15114L25.2262 3.03424L25.2635 2.91698L25.3013 2.80008L25.3392 2.68353L25.3779 2.56628L25.4171 2.44938L25.4569 2.33248L25.4972 2.21557L25.538 2.09867L25.5794 1.98177L25.6214 1.86487L25.6638 1.74797L25.707 1.63107L25.7508 1.51434L25.795 1.39744L25.8401 1.28089L25.8855 1.16417L25.9317 1.04744L25.9785 0.930893L27.2704 1.30801L27.2257 1.41998L27.1813 1.53177L27.1375 1.64392L27.0943 1.75607L27.0517 1.86822L27.0097 1.98054L26.9683 2.09269L26.9273 2.20536L26.887 2.31786L26.8471 2.43054L26.8077 2.54321L26.7688 2.65589L26.7305 2.76892L26.6927 2.88159L26.6554 2.99462L26.6183 3.108L26.5818 3.22121L26.5459 3.33406L26.5104 3.44761L26.4751 3.56099L26.4405 3.67455L26.4061 3.78828L26.3723 3.90166L26.3386 4.0154L26.3056 4.12913L26.2728 4.24321L26.2401 4.3573L26.2082 4.47103L26.1766 4.58511L26.1452 4.6992L26.1141 4.81328L26.0834 4.92772L26.0825 4.9286ZM26.0825 4.9286C25.9988 5.2418 25.6324 5.43828 25.2647 5.36751C24.897 5.29656 24.6666 4.98511 24.7504 4.67191L26.0825 4.9286Z" fill="#1E0A00"/>
  <path d="M30.7744 2.46961C31.0327 2.20781 31.4654 2.19408 31.7404 2.43897C32.0157 2.68387 32.0296 3.09478 31.7713 3.35675L30.7744 2.46978V2.46961ZM29.4676 5.93474L28.3738 5.15763L28.4425 5.07101L28.5114 4.98474L28.5809 4.89847L28.651 4.81238L28.7215 4.72647L28.7927 4.64073L28.8638 4.55552L28.9357 4.47013L29.0081 4.3851L29.0807 4.30006L29.1542 4.21503L29.2273 4.13087L29.3012 4.04636L29.3757 3.96168L29.4504 3.87753L29.5257 3.79337L29.6013 3.70974L29.6771 3.62612L29.7534 3.54249L29.8297 3.45939L29.9067 3.37612L29.9845 3.29284L30.0618 3.21027L30.1397 3.12735L30.218 3.04478L30.2968 2.96186L30.3758 2.87964L30.4548 2.7976L30.5346 2.7152L30.6143 2.63351L30.6944 2.55147L30.7748 2.46978L31.7717 3.35675L31.6936 3.43615L31.6159 3.51555L31.5383 3.59513L31.4614 3.67453L31.3846 3.75446L31.3079 3.83422L31.2321 3.91379L31.1565 3.99372L31.0813 4.07348L31.0062 4.15376L30.9318 4.23351L30.858 4.31362L30.784 4.39407L30.7107 4.47418L30.6378 4.55464L30.5653 4.63509L30.4935 4.71555L30.4218 4.79619L30.351 4.87664L30.2801 4.95763L30.2093 5.03897L30.1396 5.1196L30.0702 5.20076L30.0013 5.28192L29.933 5.36309L29.8648 5.4446L29.7976 5.52594L29.7308 5.60745L29.6643 5.68914L29.5984 5.77083L29.5329 5.85287L29.468 5.93474H29.4676ZM29.4676 5.93474C29.2413 6.22189 28.8127 6.28087 28.5108 6.06643C28.2089 5.85182 28.1475 5.44495 28.3738 5.15763L29.4676 5.93474Z" fill="#1E0A00"/>
  <path d="M33.4646 5.90197C33.7883 5.71711 34.2083 5.8164 34.4022 6.12362C34.5962 6.43084 34.4912 6.82996 34.1674 7.01482L33.4644 5.90214L33.4646 5.90197ZM31.5643 8.64457L30.7539 7.59985L30.8333 7.54457L30.9126 7.48947L30.9925 7.43454L31.0732 7.37943L31.154 7.32503L31.2346 7.2708L31.3166 7.21605L31.3986 7.162L31.4807 7.10813L31.5638 7.05408L31.6467 7.00056L31.7299 6.94704L31.814 6.89334L31.898 6.84017L31.9825 6.787L32.0671 6.73401L32.1521 6.68102L32.2377 6.6282L32.3234 6.57556L32.4095 6.52292L32.4957 6.47063L32.5825 6.41834L32.6695 6.36623L32.7565 6.31429L32.8441 6.26235L32.9322 6.21042L33.0202 6.15883L33.1082 6.10725L33.1971 6.05566L33.2861 6.00408L33.3752 5.95302L33.4644 5.90179L34.1674 7.01447L34.0805 7.06429L33.9937 7.11429L33.9076 7.16394L33.8217 7.21394L33.736 7.26411L33.6503 7.31429L33.5656 7.36429L33.4809 7.41447L33.3963 7.46499L33.3123 7.51535L33.2287 7.56587L33.1453 7.61658L33.0624 7.66711L32.9799 7.71781L32.8977 7.76851L32.8159 7.81939L32.7345 7.87027L32.6535 7.92133L32.5728 7.97239L32.4929 8.02344L32.4129 8.07485L32.3333 8.12626L32.2547 8.17732L32.1761 8.22908L32.0978 8.28066L32.0208 8.33207L31.9431 8.38418L31.8662 8.43612L31.7903 8.48788L31.7143 8.53999L31.6387 8.59228L31.564 8.64457H31.5643ZM31.5643 8.64457C31.2603 8.8576 30.8322 8.79633 30.6086 8.50777C30.385 8.21922 30.4499 7.8127 30.7539 7.59968L31.5643 8.64439V8.64457Z" fill="#1E0A00"/>
  <path d="M34.738 10.3279C35.0513 10.3006 35.3227 10.5797 35.3436 10.9513C35.3645 11.323 35.1276 11.6466 34.8144 11.6738L34.738 10.3279ZM31.7723 12.173L31.6777 10.8289L31.7665 10.8189L31.8552 10.808L31.9441 10.796L32.0339 10.783L32.1239 10.7693L32.2141 10.7547L32.305 10.7393L32.396 10.7233L32.4879 10.7068L32.5799 10.6897L32.6722 10.6721L32.7652 10.6541L32.8587 10.6358L32.9522 10.6175L33.0466 10.5987L33.1416 10.58L33.2369 10.5612L33.3329 10.5423L33.4295 10.5237L33.5266 10.5054L33.624 10.4872L33.7221 10.4693L33.821 10.452L33.9202 10.4349L34.0203 10.4186L34.1208 10.4029L34.2219 10.3879L34.324 10.374L34.4266 10.3608L34.5295 10.3488L34.6333 10.3378L34.7379 10.3279L34.8142 11.6738L34.7214 11.6825L34.6285 11.6923L34.5354 11.7031L34.4427 11.7149L34.3501 11.7277L34.2571 11.7414L34.1639 11.7559L34.0711 11.771L33.9779 11.7869L33.8847 11.8032L33.7915 11.8203L33.6976 11.8377L33.6039 11.8557L33.51 11.8738L33.4162 11.8922L33.3219 11.9108L33.2277 11.9295L33.1327 11.9483L33.0374 11.9672L32.9425 11.9856L32.8472 12.0041L32.7511 12.0224L32.6548 12.0402L32.5584 12.0576L32.4615 12.0747L32.3644 12.0911L32.2666 12.1069L32.1686 12.1219L32.0705 12.1362L31.9715 12.1495L31.8721 12.1619L31.7725 12.173H31.7723ZM31.7723 12.173C31.4594 12.2064 31.1843 11.9325 31.1582 11.5615C31.1322 11.1904 31.3647 10.8624 31.6777 10.8289L31.7723 12.173Z" fill="#1E0A00"/>
  <path d="M14.3025 17.9767L15.413 17.4151C15.5723 17.7135 15.4529 18.0811 15.1464 18.2362C14.8399 18.3912 14.4618 18.2751 14.3026 17.9767H14.3025ZM6.25584 19.5257L6.34015 19.0174L6.44131 18.5206L6.55845 18.0366L6.69174 17.5669L6.84029 17.1128L7.00428 16.6757L7.18354 16.2568L7.37788 15.8577L7.58748 15.4797L7.81217 15.1243L8.05266 14.7929L8.30947 14.4873L8.58333 14.2091L8.87493 13.9609L9.18534 13.7454L9.51475 13.5663L9.86243 13.4281L10.2266 13.3354L10.6036 13.2919L10.9887 13.3005L11.3765 13.3625L11.7627 13.4771L12.145 13.6431L12.522 13.8591L12.8938 14.1243L13.2614 14.4387L13.6252 14.8028L13.9864 15.2177L14.3454 15.6848L14.7027 16.2058L15.0585 16.7822L15.413 17.4155L14.3025 17.9771L13.972 17.3864L13.6451 16.8568L13.3228 16.3869L13.0065 15.9751L12.6977 15.6202L12.3976 15.3199L12.1084 15.0725L11.8316 14.875L11.5693 14.7244L11.322 14.6172L11.0897 14.5482L10.8709 14.5132L10.6623 14.5086L10.4598 14.5322L10.2595 14.5836L10.0584 14.6637L9.85586 14.7741L9.65229 14.9156L9.4489 15.0892L9.24728 15.2942L9.04939 15.5301L8.857 15.7952L8.67171 16.0885L8.49459 16.4081L8.32704 16.7523L8.17015 17.1192L8.02462 17.507L7.89115 17.9142L7.77082 18.3389L7.66415 18.7794L7.57169 19.2336L7.49413 19.7001L6.25549 19.5265L6.25584 19.5257ZM6.25584 19.5257L7.49448 19.6993C7.44514 20.032 7.12781 20.2632 6.78598 20.2153C6.44397 20.1674 6.20668 19.8584 6.25602 19.5257H6.25584ZM0.25717 49.4805L0.734771 48.4307L1.17705 47.4041L1.58579 46.3992L1.96258 45.4145L2.30903 44.4482L2.62689 43.4989L2.91796 42.5647L3.18383 41.6443L3.42627 40.7358L3.64652 39.838L3.84672 38.9487L4.0281 38.0667L4.19281 37.1904L4.34171 36.3181L4.47713 35.448L4.60048 34.5788L4.71336 33.7087L4.81736 32.8362L4.91409 31.96L5.00514 31.0781L5.0921 30.1892L5.17676 29.2918L5.26089 28.3844L5.34572 27.4658L5.43304 26.5339L5.5248 25.5878L5.62224 24.6257L5.72731 23.6463L5.84143 22.6478L5.96655 21.6292L6.1041 20.5887L6.25584 19.5253L7.49448 19.6989L7.34469 20.7501L7.20856 21.779L7.08486 22.7873L6.97162 23.7765L6.86744 24.7485L6.77036 25.7047L6.67914 26.6464L6.59199 27.5755L6.50716 28.4934L6.42303 29.4019L6.33802 30.3024L6.25034 31.1964L6.15858 32.0855L6.06079 32.9711L5.95537 33.8547L5.84089 34.7378L5.71541 35.6221L5.57733 36.5087L5.42506 37.3996L5.2568 38.2957L5.07098 39.1983L4.86599 40.1094L4.64006 41.0302L4.39158 41.9619L4.1188 42.9061L3.82027 43.8642L3.49442 44.8374L3.13928 45.8276L2.75361 46.8358L2.33547 47.8636L1.8836 48.9124L1.39624 49.9839L0.256992 49.48L0.25717 49.4805ZM0.25717 49.4805L1.39642 49.9844C1.25355 50.2906 0.882435 50.426 0.567761 50.2869C0.253265 50.1478 0.11412 49.7867 0.256992 49.4805H0.25717ZM3.83217 50.7279L4.96006 51.2548L4.81736 51.5011L4.65656 51.7272L4.47944 51.9316L4.28811 52.1138L4.08401 52.2737L3.86961 52.4108L3.64705 52.5254L3.41828 52.6179L3.18525 52.6886L2.94991 52.7379L2.71404 52.767L2.47887 52.7761L2.24549 52.7659L2.016 52.7372L1.7906 52.69L1.57106 52.6247L1.35897 52.5418L1.15505 52.4413L0.960881 52.323L0.778431 52.187L0.609292 52.0332L0.456126 51.8622L0.32053 51.674L0.2057 51.4694L0.11412 51.2501L0.0480973 51.018L0.00958396 50.7751L0 50.524L0.0198779 50.2673L0.0695725 50.0066L0.148906 49.7441L0.257347 49.4807L1.3966 49.9846L1.33057 50.145L1.28603 50.292L1.26047 50.4261L1.25106 50.5489L1.25532 50.6606L1.27183 50.7631L1.29898 50.8585L1.33625 50.9476L1.38346 51.0316L1.44097 51.1112L1.50876 51.1867L1.5865 51.2573L1.67382 51.3223L1.77037 51.3811L1.87508 51.4327L1.98725 51.4765L2.10492 51.5115L2.22738 51.5371L2.35393 51.5531L2.48189 51.5587L2.61074 51.5538L2.73959 51.5381L2.86685 51.5113L2.99179 51.4737L3.11372 51.4244L3.23228 51.3633L3.34676 51.29L3.45679 51.204L3.56222 51.1036L3.66232 50.9881L3.7562 50.8561L3.84352 50.7052L4.97142 51.2321L3.83217 50.7283V50.7279ZM4.96006 51.2548L3.84352 50.7048C3.99953 50.4048 4.37614 50.2846 4.68443 50.4365C4.99271 50.5885 5.11606 50.9548 4.96006 51.2548ZM7.1846 51.7835L8.35047 52.2244L8.20157 52.5367L8.03917 52.8228L7.864 53.0826L7.67622 53.3165L7.47638 53.524L7.26518 53.7054L7.0435 53.8599L6.81313 53.9867L6.57584 54.0855L6.33376 54.1559L6.0899 54.1976L5.84693 54.2115L5.60768 54.1985L5.37483 54.1599L5.14996 54.0974L4.93485 54.0124L4.73128 53.9066L4.54049 53.7818L4.36319 53.639L4.20079 53.4795L4.05419 53.3047L3.92463 53.1154L3.81335 52.9133L3.72124 52.6988L3.65007 52.4737L3.60109 52.2393L3.57535 51.9971L3.57411 51.7485L3.59842 51.4955L3.64918 51.2397L3.7271 50.9832L3.83199 50.7279L4.97124 51.2318L4.90876 51.3834L4.86457 51.5291L4.83671 51.6691L4.82375 51.8034L4.82446 51.9321L4.83777 52.0555L4.86244 52.1733L4.89776 52.2849L4.9432 52.3906L4.99786 52.4895L5.06069 52.5812L5.13079 52.6649L5.20746 52.74L5.28964 52.8062L5.37607 52.8629L5.4657 52.9094L5.55799 52.946L5.65188 52.9723L5.74772 52.9883L5.8448 52.9936L5.94348 52.9879L6.04464 52.9707L6.149 52.9406L6.25709 52.8957L6.36908 52.8341L6.48479 52.7536L6.60371 52.6515L6.72457 52.5256L6.84614 52.3742L6.96683 52.1953L7.08486 51.9872L7.19844 51.7485L8.36432 52.1893L7.18442 51.7837L7.1846 51.7835ZM8.35047 52.2244L7.19844 51.7485C7.33333 51.439 7.70089 51.2946 8.01894 51.426C8.33698 51.5573 8.48536 51.9149 8.35047 52.2246V52.2244ZM11.8584 53.2135L11.7494 53.5214L11.6213 53.8066L11.4748 54.068L11.3109 54.3059L11.13 54.5194L10.9337 54.7076L10.7237 54.8698L10.5017 55.0052L10.2705 55.1135L10.0326 55.1939L9.79091 55.2471L9.54811 55.2735L9.30674 55.2742L9.06874 55.2503L8.83624 55.2027L8.61084 55.1328L8.39395 55.0416L8.18683 54.9302L7.99107 54.7992L7.80827 54.6497L7.63984 54.4825L7.48703 54.2983L7.35196 54.0976L7.23625 53.8819L7.14165 53.6527L7.06942 53.4105L7.0215 53.1573L6.99913 52.8948L7.00339 52.6245L7.03534 52.3481L7.09568 52.067L7.1846 51.7834L8.36449 52.189L8.30752 52.3709L8.27078 52.5422L8.25233 52.7032L8.24984 52.855L8.26209 52.9973L8.28729 53.1305L8.32456 53.2554L8.37301 53.3723L8.4314 53.4809L8.49902 53.5809L8.57534 53.673L8.65929 53.7562L8.74963 53.8302L8.84564 53.8944L8.94574 53.9485L9.04957 53.9922L9.15553 54.0249L9.26272 54.0469L9.36974 54.0578L9.47676 54.0576L9.5829 54.0462L9.68832 54.023L9.79286 53.9878L9.89686 53.9393L10.0005 53.876L10.1038 53.7964L10.2064 53.6981L10.3068 53.5795L10.4045 53.4379L10.4973 53.2719L10.5835 53.08L10.6613 52.8601L11.8591 53.2131L11.8584 53.2135ZM11.8584 53.2135L10.6606 52.8605C10.7607 52.5386 11.1101 52.3568 11.4408 52.4543C11.7714 52.5517 11.9583 52.8918 11.8582 53.2136L11.8584 53.2135Z" fill="#1E0A00"/>
  <path d="M98.9581 23.5086V19.2477L94.9224 12.5832H97.2195L99.9651 17.1407L102.719 12.5832H105L100.98 19.2321V23.5086H98.9581ZM98.4232 11.5687L100.657 9.13391H103.112L100.311 11.5687H98.4232Z" fill="#1E0A00"/>
  <path d="M85.5493 23.5084V12.583H90.5606C91.4784 12.583 92.2022 12.7417 92.7319 13.059C93.2669 13.3712 93.6471 13.7848 93.8726 14.2999C94.1034 14.8149 94.2188 15.369 94.2188 15.9621C94.2188 16.3731 94.1375 16.7893 93.9749 17.2107C93.8176 17.6321 93.5763 18.0119 93.2511 18.3501C92.926 18.6882 92.5169 18.938 92.0239 19.0992L94.1952 23.5084H91.9059L89.8211 19.3724H87.5869V23.5084H85.5493ZM87.5869 17.4682H90.5921C90.9749 17.4682 91.2765 17.398 91.4968 17.2575C91.7223 17.1118 91.8823 16.9246 91.9767 16.6956C92.0711 16.4667 92.1183 16.2248 92.1183 15.9699C92.1183 15.741 92.0737 15.5121 91.9845 15.2831C91.8954 15.0542 91.7407 14.8643 91.5204 14.7135C91.3001 14.5626 90.9907 14.4872 90.5921 14.4872H87.5869V17.4682Z" fill="#1E0A00"/>
  <path d="M74.7476 23.5084V12.583H79.4992C80.3961 12.583 81.1041 12.7261 81.6233 13.0122C82.1426 13.2932 82.5123 13.6599 82.7326 14.1126C82.9529 14.56 83.063 15.0282 83.063 15.5173C83.063 16.0063 82.9555 16.4537 82.7404 16.8595C82.5254 17.2601 82.174 17.5697 81.6863 17.7882C82.0849 17.9287 82.4127 18.1316 82.6696 18.3969C82.9319 18.657 83.1233 18.9536 83.2439 19.2865C83.3698 19.6143 83.4327 19.9473 83.4327 20.2854C83.4327 20.6704 83.3672 21.0554 83.2361 21.4404C83.1102 21.8202 82.903 22.1661 82.6146 22.4783C82.3261 22.7905 81.9433 23.0402 81.466 23.2275C80.994 23.4148 80.4118 23.5084 79.7195 23.5084H74.7476ZM76.7851 21.6121H79.8533C80.2466 21.6121 80.5534 21.5444 80.7737 21.4092C80.9992 21.2739 81.1566 21.1048 81.2457 20.9019C81.3401 20.6938 81.3873 20.4883 81.3873 20.2854C81.3873 20.0357 81.3323 19.799 81.2221 19.5753C81.1172 19.3464 80.9205 19.1591 80.6321 19.0134C80.3489 18.8677 79.9372 18.7949 79.397 18.7949H76.7851V21.6121ZM76.7851 16.9766H79.2475C79.8454 16.9766 80.2859 16.8621 80.5691 16.6332C80.8576 16.3991 81.0018 16.0895 81.0018 15.7046C81.0018 15.5069 80.9651 15.3144 80.8917 15.1271C80.8183 14.9346 80.6767 14.7759 80.4669 14.651C80.2571 14.5262 79.9477 14.4637 79.5386 14.4637H76.7851V16.9766Z" fill="#1E0A00"/>
  <path d="M67.836 23.696C66.9549 23.696 66.2076 23.5321 65.5939 23.2043C64.9803 22.8714 64.4847 22.4318 64.1071 21.8855C63.7347 21.334 63.462 20.7253 63.2889 20.0594C63.1158 19.3935 63.0293 18.7223 63.0293 18.046C63.0293 17.3697 63.1158 16.6985 63.2889 16.0326C63.462 15.3667 63.7347 14.7606 64.1071 14.2143C64.4847 13.6628 64.9803 13.2232 65.5939 12.8954C66.2076 12.5625 66.9549 12.396 67.836 12.396C68.7171 12.396 69.4619 12.5625 70.0703 12.8954C70.6839 13.2232 71.1769 13.6628 71.5493 14.2143C71.9269 14.7606 72.1996 15.3667 72.3674 16.0326C72.5405 16.6985 72.6271 17.3697 72.6271 18.046C72.6271 18.7223 72.5405 19.3935 72.3674 20.0594C72.1996 20.7253 71.9269 21.334 71.5493 21.8855C71.1769 22.4318 70.6839 22.8714 70.0703 23.2043C69.4619 23.5321 68.7171 23.696 67.836 23.696ZM67.836 21.7528C68.329 21.7528 68.746 21.6384 69.0869 21.4095C69.433 21.1805 69.711 20.8814 69.9208 20.512C70.1306 20.1426 70.2827 19.742 70.3771 19.3102C70.4715 18.8732 70.5187 18.4518 70.5187 18.046C70.5187 17.609 70.4715 17.172 70.3771 16.7349C70.2879 16.2927 70.1385 15.8921 69.9287 15.5331C69.7241 15.169 69.4488 14.8776 69.1026 14.6591C68.7617 14.4354 68.3395 14.3235 67.836 14.3235C67.3273 14.3235 66.8999 14.438 66.5537 14.6669C66.2128 14.8958 65.9375 15.1976 65.7277 15.5722C65.5231 15.9415 65.3737 16.3447 65.2793 16.7818C65.1901 17.2136 65.1455 17.635 65.1455 18.046C65.1455 18.4778 65.1901 18.9122 65.2793 19.3492C65.3737 19.7863 65.5258 20.1869 65.7355 20.551C65.9506 20.9152 66.2285 21.2066 66.5695 21.4251C66.9156 21.6436 67.3378 21.7528 67.836 21.7528Z" fill="#1E0A00"/>
  <path d="M52.2834 23.5084V12.583H55.9967C56.9512 12.583 57.7641 12.7391 58.4355 13.0512C59.1068 13.3582 59.6496 13.7744 60.0639 14.2999C60.4835 14.8201 60.7877 15.4054 60.9765 16.0557C61.1706 16.7008 61.2676 17.3642 61.2676 18.0457C61.2676 18.67 61.1758 19.3021 60.9922 19.942C60.8139 20.582 60.5202 21.1725 60.1111 21.7135C59.702 22.2494 59.154 22.6838 58.4669 23.0168C57.7851 23.3445 56.9407 23.5084 55.9337 23.5084H52.2834ZM54.321 21.5887H56.1462C56.7073 21.5887 57.1794 21.4846 57.5622 21.2765C57.9451 21.0632 58.2519 20.7849 58.4827 20.4415C58.7187 20.0929 58.8891 19.7105 58.994 19.2943C59.1041 18.8729 59.1592 18.4567 59.1592 18.0457C59.1592 17.6087 59.1041 17.1795 58.994 16.7581C58.8839 16.3367 58.7134 15.9543 58.4827 15.6109C58.2519 15.2675 57.9582 14.9944 57.6015 14.7915C57.2449 14.5886 56.8175 14.4872 56.3192 14.4872H54.321V21.5887Z" fill="#1E0A00"/>
  <path d="M95.5366 45.984V35.0586H97.5742V44.0252H102.9V45.984H95.5366Z" fill="#1E0A00"/>
  <path d="M85.7795 45.9838V35.0584H93.2217V36.9782H87.8171V39.3818H91.019V41.3015H87.8171V44.0485H93.5522V45.9838H85.7795ZM88.6903 34.0439L86.4404 31.6091H88.2419L89.6265 32.7407L91.0032 31.6091H92.7969L90.5391 34.0439H88.6903Z" fill="#1E0A00"/>
  <path d="M74.6707 45.984V35.0586H78.3839C79.3384 35.0586 80.1513 35.2147 80.8227 35.5268C81.494 35.8338 82.0368 36.25 82.4511 36.7754C82.8707 37.2957 83.1749 37.881 83.3637 38.5313C83.5578 39.1764 83.6548 39.8398 83.6548 40.5213C83.6548 41.1456 83.563 41.7777 83.3794 42.4176C83.2011 43.0575 82.9074 43.648 82.4983 44.1891C82.0892 44.725 81.5412 45.1594 80.8541 45.4924C80.1723 45.8201 79.3279 45.984 78.3209 45.984H74.6707ZM76.7082 44.0642H78.5334C79.0945 44.0642 79.5666 43.9602 79.9494 43.7521C80.3323 43.5388 80.6391 43.2605 80.8699 42.9171C81.1059 42.5685 81.2763 42.1861 81.3812 41.7699C81.4914 41.3485 81.5464 40.9323 81.5464 40.5213C81.5464 40.0843 81.4914 39.6551 81.3812 39.2337C81.2711 38.8123 81.1006 38.4299 80.8699 38.0865C80.6391 37.7431 80.3454 37.47 79.9888 37.2671C79.6321 37.0642 79.2047 36.9627 78.7064 36.9627H76.7082V44.0642Z" fill="#1E0A00"/>
  <path d="M63.4077 45.984V35.0586H65.3115L69.6541 41.489C69.7118 41.5826 69.7852 41.7101 69.8744 41.8714C69.9688 42.0274 70.0475 42.1705 70.1104 42.3006C70.0947 42.1861 70.0816 42.0483 70.0711 41.887C70.0658 41.7205 70.0632 41.5878 70.0632 41.489V35.0586H72.0929V45.984H70.2756L65.8465 39.5068C65.7888 39.4184 65.7127 39.2935 65.6183 39.1322C65.5292 38.9709 65.4531 38.8253 65.3902 38.6952C65.4059 38.8253 65.4164 38.9657 65.4217 39.1166C65.4269 39.2675 65.4295 39.3975 65.4295 39.5068V45.984H63.4077Z" fill="#1E0A00"/>
  <path d="M51.4495 45.984L55.6426 35.0586H57.5779L61.7867 45.984H59.5918L58.7186 43.6741H54.5097L53.6522 45.984H51.4495ZM55.1706 41.8245H58.042L56.9406 38.8981C56.9039 38.8096 56.8646 38.7108 56.8226 38.6015C56.7807 38.4923 56.7413 38.383 56.7046 38.2738C56.6679 38.1593 56.6364 38.0605 56.6102 37.9772C56.584 38.0605 56.5525 38.1593 56.5158 38.2738C56.4791 38.383 56.4398 38.4923 56.3978 38.6015C56.3559 38.7108 56.3165 38.8096 56.2798 38.8981L55.1706 41.8245Z" fill="#1E0A00"/>
</svg>
