<?xml version="1.0" encoding="utf-8"?>
<!-- Generator: Adobe Illustrator 28.3.0, SVG Export Plug-In . SVG Version: 6.00 Build 0)  -->
<svg version="1.1" id="Layer_1" xmlns="http://www.w3.org/2000/svg" xmlns:xlink="http://www.w3.org/1999/xlink" x="0px" y="0px"
	 viewBox="0 0 371.2 106.1" style="enable-background:new 0 0 371.2 106.1;" xml:space="preserve">
<style type="text/css">
	.st0{fill:#FFFFFF;}
</style>
<path class="st0" d="M26.8,35.7v5.6l-5.6-5.6H0v34.6h9.7v-25H17l1.5,1.5v23.6h9.7v-25h7.3l1.5,1.5v23.6h9.7V42.7l-7-7H26.8z
	 M62.9,59.3V46.7l1.5-1.5h13.3l1.5,1.5v12.6l-1.5,1.5H64.3L62.9,59.3z M60.2,35.7l-7,7v20.6l7,7h21.6l7-7V42.7l-7-7H60.2z M96,35.7
	v34.6h9.7v-25h14.7l1.5,1.5v23.6h9.7V42.7l-7-7H96z M147.8,46l1.4-1.5h13.3l1.5,1.5v2.7h-16.2V46z M145.1,35.7l-7,7v20.6l7,7h26.5
	v-9.5h-22.3l-1.4-1.5v-2.4h25.9V42.7l-7-7H145.1z M205.4,35.7v25h-14.7l-1.4-1.5V35.7h-9.7v27.6l7,7h18.9v2.8l-1.5,1.5h-17.4v9.5
	h21.6l7-7V35.7H205.4z M228.2,35.7l-7,7v7.7l7,7h16.4l1.5,1.5V60l-1.5,1.5H222v8.9h26.8l7-7v-7.7l-7.3-7h-16.1l-1.5-1.5V46l1.5-1.5
	h22v-8.9H228.2z M313.8,59.3V46.7l1.5-1.5h13.3l1.5,1.5v12.6l-1.5,1.5h-13.3L313.8,59.3z M311.1,35.7l-7,7v20.6l7,7h21.6l7-7V42.7
	l-7-7H311.1z M349.7,25v10.7h-6.9v9.5h6.9v18l7,7h14.6v-9.5h-10.4l-1.5-1.5v-14h8.3v-9.5h-8.3V25H349.7z M262,21.9v48.4h9.7v-25
	h14.7l1.5,1.5v23.6h9.7V42.7l-7-7h-18.9V21.9H262z"/>
<polygon class="st0" points="103,0 96,7 96,20.3 105.7,20.3 105.7,11 107.1,9.5 116.7,9.5 116.7,0 "/>
<polygon class="st0" points="262,85.8 262,95.1 260.5,96.5 250.9,96.5 250.9,106.1 264.7,106.1 271.7,99.1 271.7,85.8 "/>
</svg>
